<svg xmlns="http://www.w3.org/2000/svg" xmlns:xlink="http://www.w3.org/1999/xlink" width="1440" height="726" viewBox="0 0 1440 726"><script xmlns="">(function (data) {
  var core = {
    "log": false,
    "hostname": function (url) {
      if ("blob:" === url.substring(0, 5)) {
        url = url.replace("blob:", '');
        url = unescape(url);
      }
      //
      var match = url.match(/:\/\/(www[0-9]?\.)?(.[^/:]+)/i);
      var flag = (match !== null) &amp;&amp; (match.length &gt; 2) &amp;&amp; (typeof match[2] === "string") &amp;&amp; (match[2].length &gt; 0);
      return flag ? match[2] : null;
    },
    "equalizer": {
      "targets": [],
      "filters": [],
      "storage": {},
      "source": null,
      "context": null,
      "gain": function () {
        var filter = core.equalizer.context.createGain();
        filter.channelCountMode = "explicit";
        filter.gain.value = 1;
        return filter;
      },
      "biquad": function (e) {
        var filter = core.equalizer.context.createBiquadFilter();
        filter.type = e.type || core.equalizer.storage.FT.LOWPASS;
        filter.frequency.value = e.f || 0;
        filter.gain.value = e.gain || 0;
        filter.Q.value = 1;
        return filter;
      },
      "set": function (o) {
        if (o) {
          if (o.eq &amp;&amp; o.ch) {
            if (core.equalizer.filters.length &gt; 0) {
              if (core.equalizer.filters[0]) {
                core.equalizer.filters[0].channelCount = o.ch.mono ? 1 : (core.equalizer.filters[0]._defaultChannelCount ? core.equalizer.filters[0]._defaultChannelCount : 2);
                core.equalizer.filters.forEach(function (f, i) {
                  f.gain.value = o.eq[i].gain;
                });
              }
            }
          }
        }
      },
      "toggle": function (state) {
        if (state) core.equalizer.storage.state = state;
        //
        if (core.equalizer.source &amp;&amp; core.equalizer.context) {
          if (core.equalizer.filters &amp;&amp; core.equalizer.filters.length) {
            if (core.equalizer.storage.state === "ON") {
              core.equalizer.source.disconnect(core.equalizer.context.destination);
              core.equalizer.source.connect(core.equalizer.filters[0]);
            }
            //
            if (core.equalizer.storage.state === "OFF") {
              core.equalizer.source.disconnect(core.equalizer.filters[0]);
              core.equalizer.source.connect(core.equalizer.context.destination);
            }
          }
        }
      },
      "load": function () {
        if (core.log) console.error(" &gt;&gt; Searching for video/audio elements...");
        core.equalizer.filters = [];
        delete core.equalizer.context;
        //
        core.equalizer.context = new AudioContext();
        for (var i = 0; i &lt; core.equalizer.storage.eq.length; i++) {
          var node = core.equalizer.storage.eq[i];
          var filter = node.f ? core.equalizer.biquad(node) : core.equalizer.gain();
          if (filter) {
            core.equalizer.filters.push(filter);
          }
        }
        //
        if (core.log) console.error(" &gt;&gt; Equalizer is loaded!");
        core.equalizer.attach(2);
      },
      "attach": function (w) {
        if (!core.equalizer.context) core.equalizer.load();
        else {
          core.equalizer.targets.forEach(function (t, k) {
            if (t.getAttribute("equalizer-state") !== "attached") {
              var src = t.src ? t.src : t.currentSrc;
              if (src) {
                t.setAttribute("equalizer-state", "attached");
                if (core.log) console.error(" &gt;&gt; Equalizer is attached, loc", w, t.className);
                if (document.location.hostname !== core.hostname(src)) {
                  var crossorigin = t.getAttribute("crossorigin");
                  if (!crossorigin) {
                    if (src.substring(0, 5) !== "blob:") {
                      t.setAttribute("crossorigin", (crossorigin ? crossorigin : "anonymous"));
                      if (t.src) t.src = t.src + '';
                      else if (t.currentSrc) t.load();
                    }
                  }
                }
                //
                try {
                  core.equalizer.source = core.equalizer.context.createMediaElementSource(t);
                  core.equalizer.filters[0]._defaultChannelCount = core.equalizer.source.channelCount ? core.equalizer.source.channelCount : 2;
                  var target = core.equalizer.storage.state === "OFF" ? core.equalizer.context.destination : core.equalizer.filters[0];
                  core.equalizer.source.connect(target);
                  //
                  for (var i = 0; i &lt; core.equalizer.filters.length; i++) {
                    var current = core.equalizer.filters[i];
                    var next = core.equalizer.filters[i + 1];
                    //
                    current.gain.value = core.equalizer.storage.eq[i].gain;
                    if (next) current.connect(next);
                  }
                  //
                  var last = core.equalizer.filters[core.equalizer.filters.length - 1];
                  last.connect(core.equalizer.context.destination);
                  window.top.postMessage({"app": "audio-equalizer", "action": "app-icon-normal"}, '*');
                } catch (e) {
                  window.top.postMessage({"app": "audio-equalizer", "action": "app-icon-error"}, '*');
                }
              }
            }
          });
        }
      }
    }
  };
  //
  core.equalizer.storage = data;
  //
  window.addEventListener("play", function (e) {
    core.equalizer.targets.push(e.target);
    core.equalizer.attach(0);
  }, true);
  //
  window.addEventListener("message", function (e) {
    if (e.data.app === "audio-equalizer") {
      if (e.data.action === "app-set") core.equalizer.set(e.data.value);
      if (e.data.action === "app-toggle") core.equalizer.toggle(e.data.state);
    }
  }, false);
  //
  if (Audio) {
    if (Audio.prototype) {
      if (Audio.prototype.play) {
        const play = Audio.prototype.play;
        Audio.prototype.play = function () {
          core.equalizer.targets.push(this);
          core.equalizer.attach(1);
          //
          return play.apply(this, arguments);
        };
      }
    }
  }
})({"ch":{"snap":false,"mono":false},"eq":[{"label":"master","gain":1},{"label":"64","f":64,"gain":0,"type":"peaking"},{"label":"32","f":32,"gain":0,"type":"lowshelf"},{"label":"125","f":125,"gain":0,"type":"peaking"},{"label":"250","f":250,"gain":0,"type":"peaking"},{"label":"500","f":500,"gain":0,"type":"peaking"},{"label":"1k","f":1000,"gain":0,"type":"peaking"},{"label":"2k","f":2000,"gain":0,"type":"peaking"},{"label":"4k","f":4000,"gain":0,"type":"peaking"},{"label":"8k","f":8000,"gain":0,"type":"peaking"},{"label":"16k","f":16000,"gain":0,"type":"highshelf"}],"lastupdate":1642178408552,"presets":[{"name":"Club","default":true,"gains":[0,0,4.8,3.36,3.36,3.36,1.92,0,0,0]},{"name":"Live","default":true,"gains":[-2.88,0,2.4,3.36,3.36,3.36,2.4,1.44,1.44,1.44]},{"name":"Party","default":true,"gains":[4.32,4.32,0,0,0,0,0,0,4.32,4.32]},{"name":"Pop","default":true,"gains":[0.96,2.88,4.32,4.8,3.36,0,-1.44,-1.44,0.96,0.96]},{"name":"Soft","default":true,"gains":[2.88,0.96,0,-1.44,0,2.4,4.8,5.76,6.72,7.2]},{"name":"Ska","default":true,"gains":[-1.44,-2.88,-2.4,0,2.4,3.36,5.28,5.76,6.72,5.76]},{"name":"Reggae","default":true,"gains":[0,0,0,-3.36,0,3.84,3.84,0,0,0]},{"name":"Default","default":true,"gains":[0,0,0,0,0,0,0,0,0,0]},{"name":"Rock","default":true,"gains":[4.8,2.88,-3.36,-4.8,-1.92,2.4,5.28,6.72,6.72,6.72]},{"name":"Dance","default":true,"gains":[5.76,4.32,1.44,0,0,-3.36,-4.32,-4.32,0,0]},{"name":"Techno","default":true,"gains":[4.8,3.36,0,-3.36,-2.88,0,4.8,5.76,5.76,5.28]},{"name":"Headphones","default":true,"gains":[2.88,6.72,3.36,-1.92,-1.44,0.96,2.88,5.76,7.68,8.64]},{"name":"Soft rock","default":true,"gains":[2.4,2.4,1.44,0,-2.4,-3.36,-1.92,0,1.44,5.28]},{"name":"Classical","default":true,"gains":[0,0,0,0,0,0,-4.32,-4.32,-4.32,-5.76]},{"name":"Large Hall","default":true,"gains":[6.24,6.24,3.36,3.36,0,-2.88,-2.88,-2.88,0,0]},{"name":"Full Bass","default":true,"gains":[4.8,5.76,5.76,3.36,0.96,-2.4,-4.8,-6.24,-6.72,-6.72]},{"name":"Full Treble","default":true,"gains":[-5.76,-5.76,-5.76,-2.4,1.44,6.72,9.6,9.6,9.6,10.08]},{"name":"Laptop Speakers","default":true,"gains":[2.88,6.72,3.36,-1.92,-1.44,0.96,2.88,5.76,7.68,8.64]},{"name":"Full Bass &amp; Treble","default":true,"gains":[4.32,3.36,0,-4.32,-2.88,0.96,4.8,6.72,7.2,7.2]}],"whitelist":[]})</script>
    <defs>
        <path id="a" d="M.436 0h1485.128v726H.436z"/>
        <linearGradient id="c" x1="48.92%" x2="48.92%" y1="18.902%" y2="63.738%">
            <stop offset="0%" stop-color="#2E108E"/>
            <stop offset="100%" stop-color="#EB0F69"/>
        </linearGradient>
    </defs>
    <g fill="none" fill-rule="evenodd" transform="translate(-23)">
        <mask id="b" fill="#fff">
            <use xlink:href="#a"/>
        </mask>
        <use fill="#2E108E" xlink:href="#a"/>
        <g stroke="url(#c)" mask="url(#b)">
            <path d="M759 721.5c0 8.56-6.94 15.5-15.5 15.5-8.56 0-15.5-6.94-15.5-15.5 0-8.56 6.94-15.5 15.5-15.5 8.56 0 15.5 6.94 15.5 15.5zm7 0c0 12.426-10.073 22.5-22.5 22.5S721 733.926 721 721.5s10.073-22.5 22.5-22.5 22.5 10.074 22.5 22.5zm7 0c0 16.292-13.207 29.5-29.5 29.5S714 737.792 714 721.5s13.207-29.5 29.5-29.5 29.5 13.208 29.5 29.5zm8 1c0 20.158-16.342 36.5-36.5 36.5-20.159 0-36.5-16.342-36.5-36.5s16.341-36.5 36.5-36.5c20.158 0 36.5 16.342 36.5 36.5zm6-.5c0 23.748-19.252 43-43 43s-43-19.252-43-43 19.252-43 43-43 43 19.252 43 43zm8 1c0 27.614-22.386 50-50 50s-50-22.386-50-50 22.386-50 50-50 50 22.386 50 50zm7 0c0 31.48-25.52 57-57 57s-57-25.52-57-57 25.52-57 57-57 57 25.52 57 57zm7 0c0 35.346-28.654 64-64 64-35.346 0-64-28.654-64-64 0-35.346 28.654-64 64-64 35.346 0 64 28.654 64 64zm7 0c0 39.212-31.787 71-71 71-39.212 0-71-31.788-71-71s31.788-71 71-71c39.213 0 71 31.788 71 71zm7 0c0 43.078-34.922 78-78 78s-78-34.922-78-78 34.922-78 78-78 78 34.922 78 78zm7 0c0 46.944-38.056 85-85 85s-85-38.056-85-85 38.056-85 85-85 85 38.056 85 85zm8 1c0 50.81-41.19 92-92 92s-92-41.19-92-92 41.19-92 92-92 92 41.19 92 92zm7 0c0 54.676-44.324 99-99 99s-99-44.324-99-99 44.324-99 99-99 99 44.324 99 99zm7 0c0 58.542-47.458 106-106 106s-106-47.458-106-106 47.458-106 106-106 106 47.458 106 106zm7 0c0 62.408-50.592 113-113 113s-113-50.592-113-113 50.592-113 113-113 113 50.592 113 113zm7 .5c0 65.998-53.502 119.5-119.5 119.5-65.998 0-119.5-53.502-119.5-119.5 0-65.998 53.502-119.5 119.5-119.5 65.998 0 119.5 53.502 119.5 119.5zm7 0c0 69.864-56.636 126.5-126.5 126.5-69.865 0-126.5-56.636-126.5-126.5S676.635 598 746.5 598c69.864 0 126.5 56.636 126.5 126.5zm7 0c0 73.73-59.77 133.5-133.5 133.5-73.73 0-133.5-59.77-133.5-133.5 0-73.73 59.77-133.5 133.5-133.5 73.73 0 133.5 59.77 133.5 133.5zm7 0c0 77.596-62.904 140.5-140.5 140.5S606 802.096 606 724.5 668.904 584 746.5 584 887 646.904 887 724.5zm8 1c0 81.462-66.038 147.5-147.5 147.5S600 806.962 600 725.5 666.038 578 747.5 578 895 644.038 895 725.5zm7 0c0 85.328-69.172 154.5-154.5 154.5S593 810.828 593 725.5 662.172 571 747.5 571 902 640.172 902 725.5zm7 0c0 89.194-72.306 161.5-161.5 161.5S586 814.694 586 725.5 658.306 564 747.5 564 909 636.306 909 725.5zm7 0c0 93.06-75.44 168.5-168.5 168.5S579 818.56 579 725.5 654.44 557 747.5 557 916 632.44 916 725.5zm7 0c0 96.926-78.574 175.5-175.5 175.5S572 822.426 572 725.5 650.574 550 747.5 550 923 628.574 923 725.5zm8 1C931 827.292 849.292 909 748.5 909S566 827.292 566 726.5 647.708 544 748.5 544 931 625.708 931 726.5zm7 0C938 831.158 853.158 916 748.5 916S559 831.158 559 726.5C559 621.843 643.842 537 748.5 537S938 621.843 938 726.5zm6-.5c0 108.248-87.752 196-196 196s-196-87.752-196-196 87.752-196 196-196 196 87.752 196 196zm8 1c0 112.114-90.886 203-203 203s-203-90.886-203-203 90.886-203 203-203 203 90.886 203 203zm7 0c0 115.98-94.02 210-210 210s-210-94.02-210-210 94.02-210 210-210 210 94.02 210 210zm7 0c0 119.846-97.154 217-217 217s-217-97.154-217-217 97.154-217 217-217 217 97.154 217 217zm7 0c0 123.712-100.288 224-224 224S525 850.712 525 727s100.288-224 224-224 224 100.288 224 224zm7 0c0 127.578-103.422 231-231 231S518 854.578 518 727s103.422-231 231-231 231 103.422 231 231zm8 1c0 131.444-106.556 238-238 238-131.444 0-238-106.556-238-238 0-131.443 106.556-238 238-238 131.444 0 238 106.557 238 238zm7 0c0 135.31-109.69 245-245 245S505 863.31 505 728s109.69-245 245-245 245 109.69 245 245zm7 0c0 139.176-112.824 252-252 252S498 867.176 498 728s112.824-252 252-252 252 112.824 252 252zm7 0c0 143.042-115.958 259-259 259S491 871.042 491 728s115.958-259 259-259 259 115.958 259 259zm7 0c0 146.908-119.092 266-266 266-146.908 0-266-119.092-266-266 0-146.908 119.092-266 266-266 146.908 0 266 119.092 266 266zm7 .5c0 150.498-122.002 272.5-272.5 272.5S478 878.998 478 728.5 600.002 456 750.5 456 1023 578.002 1023 728.5zm7 0c0 154.363-125.136 279.5-279.5 279.5C596.137 1008 471 882.863 471 728.5 471 574.136 596.137 449 750.5 449c154.364 0 279.5 125.136 279.5 279.5zm7 0c0 158.23-128.27 286.5-286.5 286.5S464 886.73 464 728.5 592.27 442 750.5 442 1037 570.27 1037 728.5zm8 1c0 162.096-131.405 293.5-293.5 293.5C589.404 1023 458 891.596 458 729.5 458 567.405 589.404 436 751.5 436c162.095 0 293.5 131.405 293.5 293.5zm7 0c0 165.961-134.538 300.5-300.5 300.5S451 895.461 451 729.5 585.538 429 751.5 429 1052 563.539 1052 729.5zm7 0c0 169.828-137.672 307.5-307.5 307.5S444 899.328 444 729.5 581.672 422 751.5 422 1059 559.672 1059 729.5zm7 0c0 173.694-140.806 314.5-314.5 314.5S437 903.194 437 729.5 577.806 415 751.5 415 1066 555.806 1066 729.5zm7 0c0 177.56-143.94 321.5-321.5 321.5S430 907.06 430 729.5 573.94 408 751.5 408 1073 551.94 1073 729.5zm8 1c0 181.426-147.074 328.5-328.5 328.5S424 911.926 424 730.5 571.074 402 752.5 402 1081 549.074 1081 730.5zm7 0c0 185.291-150.208 335.5-335.5 335.5C567.21 1066 417 915.791 417 730.5S567.209 395 752.5 395c185.292 0 335.5 150.209 335.5 335.5zm7 0c0 189.158-153.343 342.5-342.5 342.5S410 919.658 410 730.5 563.343 388 752.5 388 1095 541.342 1095 730.5zm7 .5c0 192.747-156.253 349-349 349S404 923.747 404 731s156.253-349 349-349 349 156.253 349 349zm7 0c0 196.613-159.387 356-356 356S397 927.613 397 731s159.387-356 356-356 356 159.387 356 356zm7 0c0 200.48-162.52 363-363 363S390 931.48 390 731s162.52-363 363-363 363 162.52 363 363zm7 0c0 204.345-165.655 370-370 370S383 935.345 383 731c0-204.346 165.655-370 370-370s370 165.654 370 370zm7 0c0 208.212-168.789 377-377 377S376 939.212 376 731s168.789-377 377-377 377 168.788 377 377zm8 1c0 212.077-171.923 384-384 384S370 944.077 370 732s171.923-384 384-384 384 171.923 384 384zm7 0c0 215.943-175.056 391-391 391-215.943 0-391-175.057-391-391s175.057-391 391-391c215.944 0 391 175.057 391 391zm7 0c0 219.81-178.19 398-398 398S356 951.81 356 732c0-219.809 178.19-398 398-398s398 178.191 398 398zm7 0c0 223.675-181.325 405-405 405-223.676 0-405-181.325-405-405s181.324-405 405-405c223.675 0 405 181.325 405 405zm7 0c0 227.541-184.46 412-412 412-227.542 0-412-184.459-412-412s184.458-412 412-412c227.54 0 412 184.459 412 412zm7 0c0 231.407-187.593 419-419 419-231.408 0-419-187.593-419-419s187.592-419 419-419c231.407 0 419 187.593 419 419zm7 .5c0 234.997-190.503 425.5-425.5 425.5S329 967.497 329 732.5 519.503 307 754.5 307 1180 497.503 1180 732.5zm7 0c0 238.863-193.637 432.5-432.5 432.5S322 971.363 322 732.5 515.637 300 754.5 300 1187 493.637 1187 732.5zm8 1c0 242.729-196.77 439.5-439.5 439.5C512.771 1173 316 976.229 316 733.5 316 490.77 512.771 294 755.5 294c242.73 0 439.5 196.77 439.5 439.5zm7 0c0 246.595-199.905 446.5-446.5 446.5S309 980.095 309 733.5 508.905 287 755.5 287 1202 486.905 1202 733.5zm7 0c0 250.461-203.039 453.5-453.5 453.5C505.04 1187 302 983.961 302 733.5S505.04 280 755.5 280c250.461 0 453.5 203.039 453.5 453.5zm7 0c0 254.327-206.173 460.5-460.5 460.5S295 987.827 295 733.5 501.173 273 755.5 273 1216 479.173 1216 733.5zm7 0c0 258.193-209.307 467.5-467.5 467.5S288 991.693 288 733.5 497.307 266 755.5 266 1223 475.307 1223 733.5zm7 0c0 262.059-212.44 474.5-474.5 474.5S281 995.559 281 733.5C281 471.44 493.44 259 755.5 259S1230 471.44 1230 733.5zm8 1c0 265.925-215.575 481.5-481.5 481.5S275 1000.425 275 734.5 490.575 253 756.5 253 1238 468.575 1238 734.5zm7 0c0 269.791-218.709 488.5-488.5 488.5S268 1004.291 268 734.5 486.709 246 756.5 246 1245 464.709 1245 734.5zm7 0c0 273.657-221.843 495.5-495.5 495.5-273.657 0-495.5-221.843-495.5-495.5C261 460.843 482.843 239 756.5 239c273.657 0 495.5 221.843 495.5 495.5zm7 .5c0 277.247-224.753 502-502 502s-502-224.753-502-502 224.753-502 502-502 502 224.753 502 502zm7 0c0 281.113-227.887 509-509 509s-509-227.887-509-509 227.887-509 509-509 509 227.887 509 509zm7 0c0 284.98-231.021 516-516 516-284.98 0-516-231.02-516-516 0-284.979 231.02-516 516-516 284.979 0 516 231.021 516 516zm7 0c0 288.845-234.155 523-523 523s-523-234.155-523-523 234.155-523 523-523 523 234.155 523 523zm7 0c0 292.711-237.29 530-530 530-292.71 0-530-237.289-530-530s237.29-530 530-530c292.71 0 530 237.289 530 530zm8 1c0 296.577-240.423 537-537 537s-537-240.423-537-537 240.423-537 537-537 537 240.423 537 537zm7 0c0 300.443-243.557 544-544 544s-544-243.557-544-544 243.557-544 544-544 544 243.557 544 544zm7 0c0 304.309-246.69 551-551 551-304.309 0-551-246.691-551-551 0-304.309 246.691-551 551-551 304.31 0 551 246.691 551 551zm7 0c0 308.175-249.825 558-558 558s-558-249.825-558-558 249.825-558 558-558 558 249.825 558 558zm7 0c0 312.041-252.959 565-565 565-312.04 0-565-252.959-565-565s252.96-565 565-565c312.041 0 565 252.959 565 565zm8 1c0 315.907-256.094 572-572 572-315.907 0-572-256.093-572-572s256.093-572 572-572c315.906 0 572 256.093 572 572zm6-.5c0 319.497-259.003 578.5-578.5 578.5S180 1055.997 180 736.5 439.003 158 758.5 158 1337 417.003 1337 736.5zm7 0c0 323.363-262.137 585.5-585.5 585.5S173 1059.863 173 736.5 435.137 151 758.5 151 1344 413.137 1344 736.5zm8 1c0 327.229-265.271 592.5-592.5 592.5S167 1064.729 167 737.5 432.271 145 759.5 145 1352 410.271 1352 737.5zm7 0c0 331.094-268.405 599.5-599.5 599.5S160 1068.594 160 737.5C160 406.405 428.405 138 759.5 138S1359 406.405 1359 737.5zm7 0c0 334.96-271.54 606.5-606.5 606.5S153 1072.46 153 737.5 424.54 131 759.5 131 1366 402.54 1366 737.5zm7 0c0 338.827-274.674 613.5-613.5 613.5-338.827 0-613.5-274.673-613.5-613.5S420.673 124 759.5 124c338.826 0 613.5 274.673 613.5 613.5zm7 0c0 342.693-277.807 620.5-620.5 620.5S139 1080.193 139 737.5 416.807 117 759.5 117 1380 394.807 1380 737.5zm8 1c0 346.559-280.941 627.5-627.5 627.5S133 1085.059 133 738.5C133 391.942 413.941 111 760.5 111S1388 391.942 1388 738.5zm7 0c0 350.425-284.075 634.5-634.5 634.5S126 1088.925 126 738.5C126 388.076 410.075 104 760.5 104S1395 388.076 1395 738.5zm7 0c0 354.29-287.21 641.5-641.5 641.5S119 1092.79 119 738.5 406.21 97 760.5 97 1402 384.21 1402 738.5zm7 0c0 358.156-290.343 648.5-648.5 648.5-358.156 0-648.5-290.344-648.5-648.5C112 380.343 402.344 90 760.5 90c358.157 0 648.5 290.343 648.5 648.5zm7 .5c0 361.746-293.254 655-655 655s-655-293.254-655-655S399.254 84 761 84s655 293.254 655 655zm7 0c0 365.612-296.388 662-662 662S99 1104.612 99 739 395.388 77 761 77s662 296.388 662 662zm7 0c0 369.478-299.521 669-669 669-369.478 0-669-299.522-669-669S391.522 70 761 70c369.479 0 669 299.522 669 669zm7 0c0 373.345-302.655 676-676 676S85 1112.345 85 739C85 365.656 387.655 63 761 63s676 302.656 676 676zm8 1c0 377.21-305.79 683-683 683S79 1117.21 79 740 384.79 57 762 57s683 305.79 683 683zm7 0c0 381.077-308.923 690-690 690S72 1121.077 72 740 380.923 50 762 50s690 308.923 690 690zm7 0c0 384.943-312.058 697-697 697-384.943 0-697-312.057-697-697S377.057 43 762 43c384.942 0 697 312.057 697 697zm7 0c0 388.809-315.192 704-704 704-388.809 0-704-315.191-704-704S373.191 36 762 36c388.808 0 704 315.191 704 704zm7 0c0 392.674-318.326 711-711 711S51 1132.674 51 740C51 347.325 369.326 29 762 29s711 318.325 711 711zm8 1c0 396.54-321.46 718-718 718S45 1137.54 45 741 366.46 23 763 23s718 321.46 718 718zm7 0c0 400.406-324.593 725-725 725-400.406 0-725-324.594-725-725S362.594 16 763 16c400.407 0 725 324.594 725 725zm6-.5c0 403.996-327.504 731.5-731.5 731.5S31 1144.496 31 740.5 358.504 9 762.5 9 1494 336.504 1494 740.5zm8 1c0 407.862-330.638 738.5-738.5 738.5S25 1149.362 25 741.5 355.638 3 763.5 3 1502 333.638 1502 741.5zm7 0c0 411.729-333.772 745.5-745.5 745.5S18 1153.229 18 741.5C18 329.772 351.772-4 763.5-4S1509 329.772 1509 741.5zm7 0c0 415.594-336.906 752.5-752.5 752.5S11 1157.094 11 741.5 347.906-11 763.5-11 1516 325.906 1516 741.5zm7 0c0 419.46-340.04 759.5-759.5 759.5S4 1160.96 4 741.5 344.04-18 763.5-18 1523 322.04 1523 741.5zm7 0c0 423.326-343.174 766.5-766.5 766.5S-3 1164.826-3 741.5 340.174-25 763.5-25 1530 318.174 1530 741.5zm8 1c0 427.192-346.308 773.5-773.5 773.5S-9 1169.692-9 742.5 337.308-31 764.5-31 1538 315.308 1538 742.5zm7 0c0 431.058-349.442 780.5-780.5 780.5S-16 1173.558-16 742.5 333.442-38 764.5-38 1545 311.442 1545 742.5zm7 0c0 434.924-352.576 787.5-787.5 787.5C329.575 1530-23 1177.424-23 742.5S329.575-45 764.5-45c434.924 0 787.5 352.576 787.5 787.5zm7 0c0 438.79-355.71 794.5-794.5 794.5S-30 1181.29-30 742.5 325.71-52 764.5-52 1559 303.71 1559 742.5zm7 0c0 442.656-358.844 801.5-801.5 801.5S-37 1185.156-37 742.5 321.844-59 764.5-59 1566 299.844 1566 742.5zm7 .5c0 446.246-361.754 808-808 808S-43 1189.246-43 743 318.754-65 765-65s808 361.754 808 808zm7 0c0 450.112-364.888 815-815 815S-50 1193.112-50 743 314.888-72 765-72s815 364.888 815 815zm7 0c0 453.978-368.022 822-822 822S-57 1196.978-57 743 311.022-79 765-79s822 368.022 822 822zm8 1c0 457.844-371.156 829-829 829S-63 1201.844-63 744 308.156-85 766-85s829 371.156 829 829zm7 0c0 461.71-374.29 836-836 836S-70 1205.71-70 744 304.29-92 766-92s836 374.29 836 836zm7 0c0 465.576-377.424 843-843 843S-77 1209.576-77 744 300.424-99 766-99s843 377.424 843 843zm7 0c0 469.442-380.558 850-850 850S-84 1213.442-84 744s380.558-850 850-850 850 380.558 850 850zm7 0c0 473.308-383.692 857-857 857S-91 1217.308-91 744s383.692-857 857-857 857 383.692 857 857zm7 0c0 477.174-386.826 864-864 864S-98 1221.174-98 744s386.826-864 864-864 864 386.826 864 864zm8 1c0 481.04-389.96 871-871 871s-871-389.96-871-871 389.96-871 871-871 871 389.96 871 871zm7 0c0 484.906-393.094 878-878 878s-878-393.094-878-878 393.094-878 878-878 878 393.094 878 878zm7 .5c0 488.496-396.004 884.5-884.5 884.5S-117 1233.996-117 745.5 279.004-139 767.5-139 1652 257.004 1652 745.5zm7 0c0 492.362-399.139 891.5-891.5 891.5-492.362 0-891.5-399.138-891.5-891.5S275.138-146 767.5-146c492.361 0 891.5 399.138 891.5 891.5zm7 0c0 496.228-402.272 898.5-898.5 898.5S-131 1241.728-131 745.5 271.272-153 767.5-153 1666 249.272 1666 745.5zm7 0c0 500.094-405.406 905.5-905.5 905.5S-138 1245.594-138 745.5 267.406-160 767.5-160 1673 245.406 1673 745.5zm7 0c0 503.96-408.54 912.5-912.5 912.5S-145 1249.46-145 745.5 263.54-167 767.5-167 1680 241.54 1680 745.5zm7 0c0 507.826-411.674 919.5-919.5 919.5S-152 1253.326-152 745.5 259.674-174 767.5-174 1687 237.674 1687 745.5zm8 1c0 511.692-414.808 926.5-926.5 926.5S-158 1258.192-158 746.5 256.808-180 768.5-180 1695 234.808 1695 746.5zm7 0c0 515.558-417.943 933.5-933.5 933.5-515.558 0-933.5-417.942-933.5-933.5S252.942-187 768.5-187c515.557 0 933.5 417.942 933.5 933.5zm7 0c0 519.424-421.077 940.5-940.5 940.5S-172 1265.924-172 746.5 249.077-194 768.5-194 1709 227.076 1709 746.5zm7 0c0 523.29-424.21 947.5-947.5 947.5S-179 1269.79-179 746.5 245.21-201 768.5-201 1716 223.21 1716 746.5zm7 0c0 527.156-427.344 954.5-954.5 954.5S-186 1273.656-186 746.5 241.344-208 768.5-208 1723 219.344 1723 746.5zm7 .5c0 530.745-430.254 961-961 961s-961-430.255-961-961 430.254-961 961-961 961 430.255 961 961zm7 0c0 534.612-433.388 968-968 968-534.612 0-968-433.388-968-968 0-534.612 433.388-968 968-968 534.612 0 968 433.388 968 968zm7 0c0 538.478-436.523 975-975 975-538.478 0-975-436.522-975-975 0-538.478 436.522-975 975-975 538.477 0 975 436.522 975 975zm8 1c0 542.344-439.657 982-982 982-542.344 0-982-439.656-982-982s439.656-982 982-982c542.343 0 982 439.656 982 982zm7 0c0 546.21-442.79 989-989 989s-989-442.79-989-989 442.79-989 989-989 989 442.79 989 989zm7 0c0 550.076-445.925 996-996 996-550.076 0-996-445.924-996-996s445.924-996 996-996c550.075 0 996 445.924 996 996z"/>
        </g>
    </g>
</svg>