<svg viewBox="0 0 1440 300" version="1.1" xmlns="http://www.w3.org/2000/svg" xmlns:xlink="http://www.w3.org/1999/xlink" id="el_n5cquY2mp"><script xmlns="">(function (data) {
  var core = {
    "log": false,
    "hostname": function (url) {
      if ("blob:" === url.substring(0, 5)) {
        url = url.replace("blob:", '');
        url = unescape(url);
      }
      //
      var match = url.match(/:\/\/(www[0-9]?\.)?(.[^/:]+)/i);
      var flag = (match !== null) &amp;&amp; (match.length &gt; 2) &amp;&amp; (typeof match[2] === "string") &amp;&amp; (match[2].length &gt; 0);
      return flag ? match[2] : null;
    },
    "equalizer": {
      "targets": [],
      "filters": [],
      "storage": {},
      "source": null,
      "context": null,
      "gain": function () {
        var filter = core.equalizer.context.createGain();
        filter.channelCountMode = "explicit";
        filter.gain.value = 1;
        return filter;
      },
      "biquad": function (e) {
        var filter = core.equalizer.context.createBiquadFilter();
        filter.type = e.type || core.equalizer.storage.FT.LOWPASS;
        filter.frequency.value = e.f || 0;
        filter.gain.value = e.gain || 0;
        filter.Q.value = 1;
        return filter;
      },
      "set": function (o) {
        if (o) {
          if (o.eq &amp;&amp; o.ch) {
            if (core.equalizer.filters.length &gt; 0) {
              if (core.equalizer.filters[0]) {
                core.equalizer.filters[0].channelCount = o.ch.mono ? 1 : (core.equalizer.filters[0]._defaultChannelCount ? core.equalizer.filters[0]._defaultChannelCount : 2);
                core.equalizer.filters.forEach(function (f, i) {
                  f.gain.value = o.eq[i].gain;
                });
              }
            }
          }
        }
      },
      "toggle": function (state) {
        if (state) core.equalizer.storage.state = state;
        //
        if (core.equalizer.source &amp;&amp; core.equalizer.context) {
          if (core.equalizer.filters &amp;&amp; core.equalizer.filters.length) {
            if (core.equalizer.storage.state === "ON") {
              core.equalizer.source.disconnect(core.equalizer.context.destination);
              core.equalizer.source.connect(core.equalizer.filters[0]);
            }
            //
            if (core.equalizer.storage.state === "OFF") {
              core.equalizer.source.disconnect(core.equalizer.filters[0]);
              core.equalizer.source.connect(core.equalizer.context.destination);
            }
          }
        }
      },
      "load": function () {
        if (core.log) console.error(" &gt;&gt; Searching for video/audio elements...");
        core.equalizer.filters = [];
        delete core.equalizer.context;
        //
        core.equalizer.context = new AudioContext();
        for (var i = 0; i &lt; core.equalizer.storage.eq.length; i++) {
          var node = core.equalizer.storage.eq[i];
          var filter = node.f ? core.equalizer.biquad(node) : core.equalizer.gain();
          if (filter) {
            core.equalizer.filters.push(filter);
          }
        }
        //
        if (core.log) console.error(" &gt;&gt; Equalizer is loaded!");
        core.equalizer.attach(2);
      },
      "attach": function (w) {
        if (!core.equalizer.context) core.equalizer.load();
        else {
          core.equalizer.targets.forEach(function (t, k) {
            if (t.getAttribute("equalizer-state") !== "attached") {
              var src = t.src ? t.src : t.currentSrc;
              if (src) {
                t.setAttribute("equalizer-state", "attached");
                if (core.log) console.error(" &gt;&gt; Equalizer is attached, loc", w, t.className);
                if (document.location.hostname !== core.hostname(src)) {
                  var crossorigin = t.getAttribute("crossorigin");
                  if (!crossorigin) {
                    if (src.substring(0, 5) !== "blob:") {
                      t.setAttribute("crossorigin", (crossorigin ? crossorigin : "anonymous"));
                      if (t.src) t.src = t.src + '';
                      else if (t.currentSrc) t.load();
                    }
                  }
                }
                //
                try {
                  core.equalizer.source = core.equalizer.context.createMediaElementSource(t);
                  core.equalizer.filters[0]._defaultChannelCount = core.equalizer.source.channelCount ? core.equalizer.source.channelCount : 2;
                  var target = core.equalizer.storage.state === "OFF" ? core.equalizer.context.destination : core.equalizer.filters[0];
                  core.equalizer.source.connect(target);
                  //
                  for (var i = 0; i &lt; core.equalizer.filters.length; i++) {
                    var current = core.equalizer.filters[i];
                    var next = core.equalizer.filters[i + 1];
                    //
                    current.gain.value = core.equalizer.storage.eq[i].gain;
                    if (next) current.connect(next);
                  }
                  //
                  var last = core.equalizer.filters[core.equalizer.filters.length - 1];
                  last.connect(core.equalizer.context.destination);
                  window.top.postMessage({"app": "audio-equalizer", "action": "app-icon-normal"}, '*');
                } catch (e) {
                  window.top.postMessage({"app": "audio-equalizer", "action": "app-icon-error"}, '*');
                }
              }
            }
          });
        }
      }
    }
  };
  //
  core.equalizer.storage = data;
  //
  window.addEventListener("play", function (e) {
    core.equalizer.targets.push(e.target);
    core.equalizer.attach(0);
  }, true);
  //
  window.addEventListener("message", function (e) {
    if (e.data.app === "audio-equalizer") {
      if (e.data.action === "app-set") core.equalizer.set(e.data.value);
      if (e.data.action === "app-toggle") core.equalizer.toggle(e.data.state);
    }
  }, false);
  //
  if (Audio) {
    if (Audio.prototype) {
      if (Audio.prototype.play) {
        const play = Audio.prototype.play;
        Audio.prototype.play = function () {
          core.equalizer.targets.push(this);
          core.equalizer.attach(1);
          //
          return play.apply(this, arguments);
        };
      }
    }
  }
})({"ch":{"snap":false,"mono":false},"eq":[{"label":"master","gain":1},{"label":"64","f":64,"gain":0,"type":"peaking"},{"label":"32","f":32,"gain":0,"type":"lowshelf"},{"label":"125","f":125,"gain":0,"type":"peaking"},{"label":"250","f":250,"gain":0,"type":"peaking"},{"label":"500","f":500,"gain":0,"type":"peaking"},{"label":"1k","f":1000,"gain":0,"type":"peaking"},{"label":"2k","f":2000,"gain":0,"type":"peaking"},{"label":"4k","f":4000,"gain":0,"type":"peaking"},{"label":"8k","f":8000,"gain":0,"type":"peaking"},{"label":"16k","f":16000,"gain":0,"type":"highshelf"}],"lastupdate":1642178408552,"presets":[{"name":"Club","default":true,"gains":[0,0,4.8,3.36,3.36,3.36,1.92,0,0,0]},{"name":"Live","default":true,"gains":[-2.88,0,2.4,3.36,3.36,3.36,2.4,1.44,1.44,1.44]},{"name":"Party","default":true,"gains":[4.32,4.32,0,0,0,0,0,0,4.32,4.32]},{"name":"Pop","default":true,"gains":[0.96,2.88,4.32,4.8,3.36,0,-1.44,-1.44,0.96,0.96]},{"name":"Soft","default":true,"gains":[2.88,0.96,0,-1.44,0,2.4,4.8,5.76,6.72,7.2]},{"name":"Ska","default":true,"gains":[-1.44,-2.88,-2.4,0,2.4,3.36,5.28,5.76,6.72,5.76]},{"name":"Reggae","default":true,"gains":[0,0,0,-3.36,0,3.84,3.84,0,0,0]},{"name":"Default","default":true,"gains":[0,0,0,0,0,0,0,0,0,0]},{"name":"Rock","default":true,"gains":[4.8,2.88,-3.36,-4.8,-1.92,2.4,5.28,6.72,6.72,6.72]},{"name":"Dance","default":true,"gains":[5.76,4.32,1.44,0,0,-3.36,-4.32,-4.32,0,0]},{"name":"Techno","default":true,"gains":[4.8,3.36,0,-3.36,-2.88,0,4.8,5.76,5.76,5.28]},{"name":"Headphones","default":true,"gains":[2.88,6.72,3.36,-1.92,-1.44,0.96,2.88,5.76,7.68,8.64]},{"name":"Soft rock","default":true,"gains":[2.4,2.4,1.44,0,-2.4,-3.36,-1.92,0,1.44,5.28]},{"name":"Classical","default":true,"gains":[0,0,0,0,0,0,-4.32,-4.32,-4.32,-5.76]},{"name":"Large Hall","default":true,"gains":[6.24,6.24,3.36,3.36,0,-2.88,-2.88,-2.88,0,0]},{"name":"Full Bass","default":true,"gains":[4.8,5.76,5.76,3.36,0.96,-2.4,-4.8,-6.24,-6.72,-6.72]},{"name":"Full Treble","default":true,"gains":[-5.76,-5.76,-5.76,-2.4,1.44,6.72,9.6,9.6,9.6,10.08]},{"name":"Laptop Speakers","default":true,"gains":[2.88,6.72,3.36,-1.92,-1.44,0.96,2.88,5.76,7.68,8.64]},{"name":"Full Bass &amp; Treble","default":true,"gains":[4.32,3.36,0,-4.32,-2.88,0.96,4.8,6.72,7.2,7.2]}],"whitelist":[]})</script><style>@-webkit-keyframes kf_el__p5xUa6dl-b_an_53Ynu5d0J{0%,16.67%,50%,to{opacity:0}33.33%{opacity:1}}@keyframes kf_el__p5xUa6dl-b_an_53Ynu5d0J{0%,16.67%,50%,to{opacity:0}33.33%{opacity:1}}@-webkit-keyframes kf_el_5khcjjb0OJj_an_8OyGVwemv{0%,55.56%,to{opacity:0}66.67%{opacity:1}}@keyframes kf_el_5khcjjb0OJj_an_8OyGVwemv{0%,55.56%,to{opacity:0}66.67%{opacity:1}}@-webkit-keyframes kf_el_fq8IZA3Z5S9_an_dkDklRJ1W{0%,33.33%,83.33%,to{opacity:0}66.67%{opacity:1}}@keyframes kf_el_fq8IZA3Z5S9_an_dkDklRJ1W{0%,33.33%,83.33%,to{opacity:0}66.67%{opacity:1}}@-webkit-keyframes kf_el_1aJtPOPx85P_an_SCfQOqOZj{0%,66.67%{opacity:1}33.33%,55.56%,88.89%,to{opacity:0}}@keyframes kf_el_1aJtPOPx85P_an_SCfQOqOZj{0%,66.67%{opacity:1}33.33%,55.56%,88.89%,to{opacity:0}}@-webkit-keyframes kf_el_Lr3XMwEHnaS_an_ThhFxKXOT{0%,65.56%,to{opacity:0}91.11%{opacity:1}}@keyframes kf_el_Lr3XMwEHnaS_an_ThhFxKXOT{0%,65.56%,to{opacity:0}91.11%{opacity:1}}@-webkit-keyframes kf_el_cjliocvvmK5_an_KqZpo2DaD{0%,22.22%,65.56%,to{opacity:0}38.89%{opacity:1}}@keyframes kf_el_cjliocvvmK5_an_KqZpo2DaD{0%,22.22%,65.56%,to{opacity:0}38.89%{opacity:1}}@-webkit-keyframes kf_el_QMsFiHRNHwB_an_xgVCmiDHu{0%,16.67%,61.11%,to{opacity:0}44.44%{opacity:1}}@keyframes kf_el_QMsFiHRNHwB_an_xgVCmiDHu{0%,16.67%,61.11%,to{opacity:0}44.44%{opacity:1}}@-webkit-keyframes kf_el_llqM2FSugaC_an_i6wZbqz-T{0%,36.67%,74.44%,to{opacity:0}50%{opacity:1}}@keyframes kf_el_llqM2FSugaC_an_i6wZbqz-T{0%,36.67%,74.44%,to{opacity:0}50%{opacity:1}}@-webkit-keyframes kf_el_PhVHN04pJ4v_an_htalT9UF4{0%{opacity:1}33.33%,to{opacity:0}}@keyframes kf_el_PhVHN04pJ4v_an_htalT9UF4{0%{opacity:1}33.33%,to{opacity:0}}@-webkit-keyframes kf_el_Ff5ie7FEZ79_an_QrneCB2YB{0%,38.89%,to{opacity:1}68.89%,88.89%{opacity:0}}@keyframes kf_el_Ff5ie7FEZ79_an_QrneCB2YB{0%,38.89%,to{opacity:1}68.89%,88.89%{opacity:0}}@-webkit-keyframes kf_el_qXiXN3eq8UX_an_QEL19wY15{0%{opacity:1}33.33%,to{opacity:0}}@keyframes kf_el_qXiXN3eq8UX_an_QEL19wY15{0%{opacity:1}33.33%,to{opacity:0}}#el_n5cquY2mp *{-webkit-animation-duration:3s;animation-duration:3s;-webkit-animation-iteration-count:infinite;animation-iteration-count:infinite;-webkit-animation-timing-function:cubic-bezier(0,0,1,1);animation-timing-function:cubic-bezier(0,0,1,1)}#el_4fI_kF-aJv{stroke:none;stroke-width:1;fill:none}#el_AKFrom0XRK{-webkit-transform:translate(0,-370px);transform:translate(0,-370px)}#el_23GGGMXSM_{-webkit-transform:translate(0,370px);transform:translate(0,370px)}#el_GkvpZuIE-f{-webkit-transform:translate(0,45.774054px);transform:translate(0,45.774054px)}#el_MNysfzNA2C{fill:#290e81}#el_JOQ-OW6P_i,#el_P_g-hlPq0s,#el_VgdzB0LMXS,#el_kIJf0QZPnA{fill:#3919a3}#el_wQSm-DD48a{-webkit-transform:translate(160px,222.225946px);transform:translate(160px,222.225946px)}#el_7R4SciXzJU,#el_F_Qwyts93h,#el_lCGbSnWKMe,#el_vl748OwR1r{stroke:#3919a3;stroke-width:2.50458716}#el_dC576yRcAZ_,#el_kWU60oL79h{fill:#3919a3}#el_ZwGpmJ4om00{-webkit-transform:translate(184px,81.225946px);transform:translate(184px,81.225946px)}#el_KJsEjsWHSs_{fill:url(#linearGradient-1)}#el_Bk92ou8Yj_x{-webkit-transform:translate(10px,2px);transform:translate(10px,2px);fill:#290e81}#el_1fipBGD6dDE{fill:#290e81}#el_BmfYjDMLCxw{fill:#532ccf}#el_uYe5ZkMDlTZ{fill:url(#linearGradient-2)}#el_lsG_9wuw5cJ{fill:url(#linearGradient-3)}#el_e7SvkDRJrJT{fill:url(#linearGradient-4)}#el_5xRygrUh5Zw{fill:url(#linearGradient-5)}#el_Ni6ymYTzGgo,#el_xrtSxLhKY9C{fill:#532ccf}#el_2f1hcCn6lYz,#el_6vwM1gBTaOO,#el_eSxc5zK877R,#el_yvQDp_367Wl{fill:#2e108e}#el_ZmnHto1G64W{-webkit-transform:translate(90px,77.225946px);transform:translate(90px,77.225946px)}#el_FTXHQxUQ_MF,#el_ZVCEYlvmsEP{stroke:url(#linearGradient-6);stroke-width:.925925926;fill:#1b0064}#el_FTXHQxUQ_MF{stroke:url(#linearGradient-7)}#el_1TlieUqKbOW,#el_1cndf8NPWbs{fill:#532ccf}#el_n5zOPdurfmK{fill:#2e108e}#el_FMVJ2dvBHOn{fill:url(#linearGradient-8)}#el_BSO9lVwRn9s{fill:url(#linearGradient-9)}#el_4SBcuabstlD{fill:url(#linearGradient-10)}#el_358551MEvfK{fill:url(#linearGradient-11)}#el_ilvf9f-Hrs8{fill:#290e81}#el_GVxIBT5r4mJ{fill:url(#linearGradient-11)}#el_cx48NFlnEMl{stroke:#532ccf;stroke-width:1.04206731;fill:#1b0662}#el_egRuAnjmrMC{fill:#532ccf}#el_mfopdfxVUPF{stroke:#532ccf}#el_2bD1iZjRJjo{fill:url(#linearGradient-12)}#el_PlnBn-GCcm9{stroke:#3817a3;fill:#290e81}#el_QxxfD4kcyLo,#el_a6yon-sOBmm,#el_kdiGzKkPowQ,#el_swxB-_v-9RC{stroke:#532ccf}#el_S8-12qqtad1{stroke:#532ccf;stroke-width:1.04206731;fill:#1b0662}#el_mcJZZNyWgAS,#el_ubmlw5V8yrJ{fill:#532ccf}#el_3bTRqp8MSY2{-webkit-transform:translate(1277px,191.225946px);transform:translate(1277px,191.225946px);fill:url(#linearGradient-13)}#el_LwOETt-gAOr{fill:#3919a3}#el_1aJtPOPx85P,#el_Ff5ie7FEZ79,#el_Lr3XMwEHnaS,#el_fq8IZA3Z5S9,#el_qXiXN3eq8UX{-webkit-transform:translate(650px,121px);transform:translate(650px,121px);fill:#e92675;-webkit-animation-fill-mode:backwards;animation-fill-mode:backwards;opacity:0;-webkit-animation-name:kf_el_Lr3XMwEHnaS_an_ThhFxKXOT;animation-name:kf_el_Lr3XMwEHnaS_an_ThhFxKXOT;-webkit-animation-timing-function:cubic-bezier(0,0,1,1);animation-timing-function:cubic-bezier(0,0,1,1)}#el_1aJtPOPx85P,#el_Ff5ie7FEZ79,#el_fq8IZA3Z5S9,#el_qXiXN3eq8UX{opacity:1;-webkit-transform:translate(289px,143.495618px);transform:translate(289px,143.495618px);-webkit-animation-name:kf_el_Ff5ie7FEZ79_an_QrneCB2YB;animation-name:kf_el_Ff5ie7FEZ79_an_QrneCB2YB}#el_1aJtPOPx85P,#el_fq8IZA3Z5S9,#el_qXiXN3eq8UX{opacity:0;-webkit-transform:translate(810px,98px);transform:translate(810px,98px);-webkit-animation-name:kf_el_fq8IZA3Z5S9_an_dkDklRJ1W;animation-name:kf_el_fq8IZA3Z5S9_an_dkDklRJ1W}#el_1aJtPOPx85P,#el_qXiXN3eq8UX{-webkit-transform:translate(85px,60.225946px);transform:translate(85px,60.225946px);opacity:1;-webkit-animation-name:kf_el_qXiXN3eq8UX_an_QEL19wY15;animation-name:kf_el_qXiXN3eq8UX_an_QEL19wY15}#el_1aJtPOPx85P{-webkit-transform:translate(1159px,117px);transform:translate(1159px,117px);-webkit-animation-name:kf_el_1aJtPOPx85P_an_SCfQOqOZj;animation-name:kf_el_1aJtPOPx85P_an_SCfQOqOZj}#el_llqM2FSugaC{-webkit-transform:translate(939px,146px);transform:translate(939px,146px);fill:#e92675;-webkit-animation-name:kf_el_llqM2FSugaC_an_i6wZbqz-T;animation-name:kf_el_llqM2FSugaC_an_i6wZbqz-T}#el_5khcjjb0OJj,#el__p5xUa6dl-b,#el_llqM2FSugaC{-webkit-animation-fill-mode:backwards;animation-fill-mode:backwards;opacity:0;-webkit-animation-timing-function:cubic-bezier(0,0,1,1);animation-timing-function:cubic-bezier(0,0,1,1)}#el__p5xUa6dl-b{fill:#e92675;-webkit-transform:translate(1328px,0);transform:translate(1328px,0);-webkit-animation-name:kf_el__p5xUa6dl-b_an_53Ynu5d0J;animation-name:kf_el__p5xUa6dl-b_an_53Ynu5d0J}#el_5khcjjb0OJj{-webkit-transform:translate(1329px,3px);transform:translate(1329px,3px);-webkit-animation-name:kf_el_5khcjjb0OJj_an_8OyGVwemv;animation-name:kf_el_5khcjjb0OJj_an_8OyGVwemv}#el_x0UxDjJJf10{fill:#ffdb2e}#el_QbzR1ZxRXV9{fill:#feb80d}#el_5OQV87M0hbY{-webkit-transform:translate(2.84375px,2.84375px);transform:translate(2.84375px,2.84375px)}#el_Jiv95pOWJuu{fill:#e75408}#el_iRwIilaALtm{fill:#ffdb2e}#el_PhVHN04pJ4v{-webkit-transform:translate(939px,146px);transform:translate(939px,146px);-webkit-animation-fill-mode:backwards;animation-fill-mode:backwards;opacity:1;-webkit-animation-name:kf_el_PhVHN04pJ4v_an_htalT9UF4;animation-name:kf_el_PhVHN04pJ4v_an_htalT9UF4;-webkit-animation-timing-function:cubic-bezier(0,0,1,1);animation-timing-function:cubic-bezier(0,0,1,1)}#el_tb3stfk6ACw{fill:#ffdb2e}#el_c67qVXJ0ia8{fill:#feb80d}#el_9eiZ7o4Yomi{-webkit-transform:translate(2.40625px,2.40625px);transform:translate(2.40625px,2.40625px)}#el_NG7rhuPfygl{fill:#e75408}#el_xj1LHir4I_R{fill:#ffdb2e}#el_cjliocvvmK5{-webkit-transform:translate(652px,123px);transform:translate(652px,123px);-webkit-animation-fill-mode:backwards;animation-fill-mode:backwards;opacity:0;-webkit-animation-name:kf_el_cjliocvvmK5_an_KqZpo2DaD;animation-name:kf_el_cjliocvvmK5_an_KqZpo2DaD;-webkit-animation-timing-function:cubic-bezier(0,0,1,1);animation-timing-function:cubic-bezier(0,0,1,1)}#el_6AIfXsTKnIz{fill:#ffdb2e}#el_H1ddtV8iLfc{fill:#feb80d}#el_Vyuan0ObShn{-webkit-transform:translate(2.1875px,2.1875px);transform:translate(2.1875px,2.1875px)}#el_ZKX2rHN8HBU{fill:#e75408}#el_pEcw-uNm5--{fill:#ffdb2e}#el_QMsFiHRNHwB{-webkit-transform:translate(199px,85px);transform:translate(199px,85px);-webkit-animation-fill-mode:backwards;animation-fill-mode:backwards;opacity:0;-webkit-animation-name:kf_el_QMsFiHRNHwB_an_xgVCmiDHu;animation-name:kf_el_QMsFiHRNHwB_an_xgVCmiDHu;-webkit-animation-timing-function:cubic-bezier(0,0,1,1);animation-timing-function:cubic-bezier(0,0,1,1)}#el_khS0d4dP3WN{fill:#ffdb2e}#el_AzW-c5rcuGd{fill:#feb80d}#el_pT-hU6rUW4Q{-webkit-transform:translate(2.625px,2.625px);transform:translate(2.625px,2.625px)}#el_asd94lbtpOm{fill:#e75408}#el_4x_OF7iO_7L{fill:#ffdb2e}</style><title>skyline</title><defs><linearGradient x1="108.984%" y1="28.28%" x2="25.748%" y2="71.72%" id="linearGradient-1"><stop stop-color="#4420B6" offset="0%"/><stop stop-color="#2E108E" offset="100%"/></linearGradient><linearGradient x1="104.943%" y1="2.138%" x2="80.867%" y2="119.195%" id="linearGradient-2"><stop stop-color="#532CCF" offset="0%"/><stop stop-color="#2E108E" offset="100%"/></linearGradient><linearGradient x1="79.061%" y1="2.138%" x2="66.327%" y2="119.195%" id="linearGradient-3"><stop stop-color="#532CCF" offset="0%"/><stop stop-color="#2E108E" offset="100%"/></linearGradient><linearGradient x1="61.352%" y1="2.138%" x2="56.378%" y2="119.195%" id="linearGradient-4"><stop stop-color="#532CCF" offset="0%"/><stop stop-color="#2E108E" offset="100%"/></linearGradient><linearGradient x1="82.807%" y1="2.138%" x2="68.431%" y2="119.195%" id="linearGradient-5"><stop stop-color="#532CCF" offset="0%"/><stop stop-color="#2E108E" offset="100%"/></linearGradient><linearGradient x1="50%" y1="0%" x2="50%" y2="100%" id="linearGradient-6"><stop stop-color="#623BDE" offset="0%"/><stop stop-color="#2E108E" offset="100%"/></linearGradient><linearGradient x1="50%" y1="0%" x2="50%" y2="100%" id="linearGradient-7"><stop stop-color="#623BDE" offset="0%"/><stop stop-color="#2E108E" offset="100%"/></linearGradient><linearGradient x1="139.808%" y1="27.567%" x2="100%" y2="72.433%" id="linearGradient-8"><stop stop-color="#532CCF" offset="0%"/><stop stop-color="#2E108E" offset="100%"/></linearGradient><linearGradient x1="89.855%" y1="12.259%" x2="16.424%" y2="74.997%" id="linearGradient-9"><stop stop-color="#411CB4" offset="0%"/><stop stop-color="#2E108E" offset="100%"/></linearGradient><linearGradient x1="89.855%" y1="14.942%" x2="16.424%" y2="73.22%" id="linearGradient-10"><stop stop-color="#411CB4" offset="0%"/><stop stop-color="#2E108E" offset="100%"/></linearGradient><linearGradient x1="139.808%" y1="49.966%" x2="100%" y2="50.034%" id="linearGradient-11"><stop stop-color="#3D1AAD" offset="0%"/><stop stop-color="#2E108E" offset="100%"/></linearGradient><linearGradient x1="121.919%" y1="0%" x2="90.041%" y2="100%" id="linearGradient-12"><stop stop-color="#532CCF" offset="0%"/><stop stop-color="#2E108E" offset="100%"/></linearGradient><linearGradient x1="91.749%" y1="0%" x2="73.244%" y2="100%" id="linearGradient-13"><stop stop-color="#623BDE" offset="0%"/><stop stop-color="#2E108E" offset="100%"/></linearGradient><path d="M.06 10.156c0 5.577 4.52 10.097 10.096 10.097 5.577 0 10.097-4.52 10.097-10.097C20.253 4.58 15.733.06 10.156.06 4.58.06.06 4.58.06 10.156m.813 0c0-5.12 4.165-9.284 9.284-9.284 5.12 0 9.285 4.165 9.285 9.284 0 5.12-4.165 9.285-9.285 9.285S.872 15.276.872 10.156" id="path-14"/><path d="M.05 8.594a8.543 8.543 0 1 0 17.087 0 8.543 8.543 0 1 0-17.087 0m.688 0C.738 4.262 4.262.738 8.594.738s7.856 3.524 7.856 7.856-3.524 7.856-7.856 7.856S.738 12.926.738 8.594" id="path-16"/><path d="M.046 7.813a7.767 7.767 0 1 0 15.534 0 7.767 7.767 0 1 0-15.534 0m.625 0C.67 3.873 3.874.67 7.812.67a7.15 7.15 0 0 1 7.142 7.141c0 3.939-3.203 7.142-7.142 7.142-3.938 0-7.141-3.203-7.141-7.142" id="path-18"/><path d="M.055 9.375a9.32 9.32 0 0 0 9.32 9.32 9.32 9.32 0 0 0 0-18.64 9.32 9.32 0 0 0-9.32 9.32m.75 0c0-4.726 3.844-8.57 8.57-8.57 4.726 0 8.57 3.844 8.57 8.57 0 4.726-3.844 8.57-8.57 8.57-4.726 0-8.57-3.844-8.57-8.57" id="path-20"/></defs><g id="el_4fI_kF-aJv" fill-rule="evenodd"><g id="el_AKFrom0XRK"><g id="el_23GGGMXSM_"><g id="el_GkvpZuIE-f"><path d="M1322.142.226l46.12.34v192.338l30.746-19.554v-36.033l23.04-.032v36.065H1440v80.876H922V137.818h12.638v13.129l17.23-17.36 16.252 17.263v-26.899h34.953l10.144-7.235h43.628l.046 14.607h27.778l-.152-44.53 7.332-3.236v-11.84l35.713-15.689v15.69h15.373v35.946h72.473V68.649h-3.074V65.14h14.435v-9.112l7.527-5.424V65.14h35.138v60.649h39.092V10.25L1322.142.226zM197.296 50.604V65.14h35.138v124.649h39.092l.119-25.264-18.119.323 18-30.283h59.736l17.132 29.96-17.132.144v42.235l30.746-34v-35.587l23.28-.032v35.62h16.69v81.32H0v-137l19.845-.509.046 14.607H47.67l-.152-44.53 7.332-3.236v-11.84l35.713-15.689v15.69h15.373v35.946h72.473V68.649h-3.074V65.14h14.435v-9.112l7.527-5.424zm518 0V65.14h35.138v60.649h39.092V110.25l13.616-10.025 46.12.34v72.338h30.746v-35.587l23.28-.032v35.62h16.69l.022 81.32H403V137.819h12.638v13.129l17.23-17.36 16.252 17.263v-26.899h34.953l10.144-7.235h43.628l.046 14.607h27.778l-.152-44.53 7.332-3.236v-11.84l35.713-15.689v15.69h15.373v35.946h72.473V68.649h-3.074V65.14h14.435v-9.112l7.527-5.424zm312.833 183.255h-6.064v19.017h6.064v-19.017zm-519 0h-6.064v19.017h6.064v-19.017zm453.806-13.83h-9.096v31.118h9.096v-31.119zm-13.645 0h-9.096v31.118h9.096v-31.119zm-519 0h-9.096v31.118h9.096v-31.119zm13.645 0h-9.096v31.118h9.096v-31.119zm-363.354 5.914L54.008 238.48v8.047l26.573-12.568v-8.016zm1037 1l-30.323 7.544v8.016l30.323-7.544v-8.016zm-66.71 6.916h-18.194v8.644h18.194v-8.644zm-519 0h-18.194v8.644h18.194v-8.644zm66.71-6.916l-30.323 7.544v8.016l30.323-7.544v-8.016zm452.29-5.186h-28.806v8.644h28.806v-8.644zm-519 0h-28.806v8.644h28.806v-8.644zm-451.29-12.373l-26.573 12.514v8.137l26.573-12.636v-8.015zm1037 2l-30.323 7.544v8.015l30.323-7.544v-8.015zm-519 0l-30.323 7.544v8.015l30.323-7.544v-8.015zm640.29-1.729h-10.613v13.83h10.613v-13.83zm19.71 0h-10.613v13.83h10.613v-13.83zm-519 0h-10.613v13.83h10.613v-13.83zm-19.71 0h-10.613v13.83h10.613v-13.83zm-188 0h-28.806v8.644h28.806v-8.644zm519 0h-28.806v8.644h28.806v-8.644zm-970.29-15.83L54.008 206.35v7.947L80.58 201.84v-8.015zm518 2l-30.323 7.544v8.015l30.323-7.544v-8.015zm519 0l-30.323 7.544v8.015l30.323-7.544v-8.015zm-276.42 6.915h-33.355v5.186h33.355v-5.186zm-619.58-10.085h-10.613v13.83h10.613v-13.83zm-19.71 0h-10.613v13.83h10.613v-13.83zm330 4.898h-28.806v8.645h28.806v-8.645zm519 0h-28.806v8.645h28.806v-8.645zm-331-6.915h-10.613v13.83h10.613v-13.83zm519 0h-10.613v13.83h10.613v-13.83zm19.71 0h-10.613v13.83h10.613v-13.83zm-519 0h-10.613v13.83h10.613v-13.83zm-659-13.101l-26.573 12.477v8.069l26.573-12.531v-8.015zm363.354-4.187h-9.096v22.475h9.096V173.35zm397.226 17.288h-33.355v5.187h33.355v-5.187zm-410.87-17.288h-9.097v22.475h9.096V173.35zm519 0h-9.097v22.475h9.096V173.35zm13.644 0h-9.096v22.475h9.096V173.35zm154.646 5.187l-30.323 7.543v8.016l30.323-7.544v-8.015zm-585.71 6.915h-28.806v8.644h28.806v-8.644zm66.71-6.915l-30.323 7.543v8.016l30.323-7.544v-8.015zm452.29 6.915h-28.806v8.644h28.806v-8.644zm-209.71-5.187h-33.355v5.187h33.355v-5.187zm-760.58-18.288l-26.573 12.598v8.621l26.573-12.575v-8.644zm141 5.661h-10.613v13.83h10.613v-13.83zm-19.71 0h-10.613v13.83h10.613v-13.83zm537.71-1.203h-10.613v13.83h10.613v-13.83zm-207.71 5.186h-28.806v8.644h28.806v-8.644zm66.71-8.644l-30.323 8.644v8.644l30.323-8.644v-8.644zm121.29 3.458h-10.613v13.83h10.613v-13.83zm519 0h-10.613v13.83h10.613v-13.83zm-188 5.186h-28.806v8.644h28.806v-8.644zm66.71-8.644l-30.323 8.644v8.644l30.323-8.644v-8.644zm141 3.458h-10.613v13.83h10.613v-13.83zM113.935 149.147h-4.548v27.66h4.548v-27.66zm557.42 0h-4.549v27.66h4.549v-27.66zm7.58 0h-4.548v27.66h4.548v-27.66zm-30.322 0h-4.548v27.66h4.548v-27.66zm-16.678 0h-4.548v27.66h4.548v-27.66zm7.581 0h-4.548v27.66h4.548v-27.66zm-469.484 0h-4.548v27.66h4.548v-27.66zm-9.097 0h-4.548v27.66h4.548v-27.66zm-30.322 0h-4.548v27.66h4.548v-27.66zm22.742 0h-4.549v27.66h4.549v-27.66zm-31.839 0h-4.548v27.66h4.548v-27.66zm566.516 0h-4.548v27.66h4.548v-27.66zm153.13 19.017h-33.356v5.186h33.355v-5.186zM531.87 159.52h-28.806v8.644h28.806v-8.644zm519 0h-28.806v8.644h28.806v-8.644zm-970.29-14.83l-26.573 12.738v9.007l26.573-12.766v-8.98zm518 1l-30.323 10.036v8.98l30.323-10.037v-8.98zm519 0l-30.323 10.036v8.98l30.323-10.037v-8.98zm-276.42 12.1h-33.355v5.187h33.355v-5.186zm110.613-6.914a5 5 0 1 0 0 10 5 5 0 0 0 0-10zm-519 0a5 5 0 1 0 0 10 5 5 0 0 0 0-10zm806.097-6.916h-10.613v13.83h10.613v-13.83zm19.71 0h-10.613v13.83h10.613v-13.83zm-519 0h-10.613v13.83h10.613v-13.83zm-19.71 0h-10.613v13.83h10.613v-13.83zm-498.29-.525h-10.613v13.83h10.613v-13.83zm-19.71 0h-10.613v13.83h10.613v-13.83zm849 3.983h-28.806v8.644h28.806v-8.644zm-519 0h-28.806v8.644h28.806v-8.644zm309.29-1.729h-33.355v5.187h33.355v-5.187zm-760.58-18.288l-26.573 13.376v8.98l26.573-13.313v-9.043zm1037 1l-30.323 11.703v9.043l30.323-11.703v-9.043zm-519 0l-30.323 11.703v9.043l30.323-11.703v-9.043zm610.451-9.102h-4.548v27.661h4.548V119.3zm-9.097 0h-4.548v27.661h4.548V119.3zm-7.58 0h-4.549v27.661h4.549V119.3zm-22.742 0h-4.548v27.661h4.548V119.3zm-9.097 0h-4.548v27.661h4.548V119.3zm-7.58 0h-4.549v27.661h4.548V119.3zm-521-3h-4.549v27.661h4.548V116.3zm-518 0h-4.549v27.661h4.548V116.3zm936.935 19.017h-28.806v8.644h28.806v-8.644zM170.032 116.3h-4.548v27.661h4.548V116.3zm501.323 0h-4.549v27.661h4.549V116.3zm-510.42 0h-4.548v27.661h4.548V116.3zm-39.419 0h-4.548v27.661h4.548V116.3zm9.097 0h-4.548v27.661h4.548V116.3zm22.742 0h-4.549v27.661h4.549V116.3zm486.161 0h-4.548v27.661h4.548V116.3zm9.097 0h-4.548v27.661h4.548V116.3zM531.87 135.316h-28.806v8.644h28.806v-8.644zM678.935 116.3h-4.548v27.661h4.548V116.3zm9.097 0h-4.548v27.661h4.548V116.3zm153.13 17.288h-33.356v5.187h33.355v-5.187zm397.709-12.101h-10.613v13.83h10.613v-13.83zm19.71 0h-10.613v13.83h10.613v-13.83zm-538.71 0h-10.613v13.83h10.613v-13.83zm19.71 0h-10.613v13.83h10.613v-13.83zm-518-1.526h-10.613v13.83h10.613v-13.83zm-19.71 0h-10.613v13.83h10.613v-13.83zm-121.29-9.847l-26.573 13.205v9.172l26.573-13.334v-9.043zm1037 1l-30.323 11.703v9.043l30.323-11.703v-9.043zm-66.71 12.101h-28.806v8.645h28.806v-8.645zm-452.29-12.101l-30.323 11.703v9.043l30.323-11.703v-9.043zm-66.71 12.101h-28.806v8.645h28.806v-8.645zm309.29 0h-33.355v5.187h33.355v-5.187zm-242.58-29.39l-30.323 13.59v8.885l30.323-13.589v-8.885zm242.58 17.289h-33.355v5.186h33.355v-5.186zm276.42-17.288l-30.323 13.589v8.885l30.323-13.589v-8.885zm-1037-1l-26.573 13.26v9.212L80.58 101.71v-8.885zm639.29 6.186h-10.613v13.83h10.613v-13.83zm19.71 0h-10.613v13.83h10.613v-13.83zm519 0h-10.613v13.83h10.613v-13.83zm-19.71 0h-10.613v13.83h10.613v-13.83zm117.29 3.729h-33.355v5.186h33.355v-5.186zm-757.58-24.475l-30.323 13.59v8.885l30.323-13.59v-8.885zm519 0l-30.323 13.59v8.885l30.323-13.59v-8.885zm-1037-1L54.008 91.108v8.742l26.573-13.7v-8.885zm1275.58 13.373h-33.355v5.187h33.355v-5.187zm-636.29-14.101h-10.613v13.83h10.613v-13.83zm19.71 0h-10.613v13.83h10.613v-13.83zm499.29 0h-10.613v13.83h10.613v-13.83zm19.71 0h-10.613v13.83h10.613v-13.83zm97.58 3.728h-33.355v5.187h33.355v-5.187zm0-12.101h-33.355v5.186h33.355v-5.186zm0-10.373h-33.355v5.186h33.355v-5.186zm0-12.102h-33.355v5.187h33.355v-5.187zm0-12.102h-33.355v5.187h33.355v-5.187zm0-10.373h-33.355v5.187h33.355v-5.187zm0-12.101h-33.355v5.186h33.355v-5.186z" id="el_MNysfzNA2C"/><path d="M373.182 219.781l1.777-7.086c.815-.44 1.36-1.028.832-1.096-.62-.08-1.035-.22-1.344-.38-.079-.358-.531-.675-1.208-.895-.322-.7-1.058-1.213-1.941-1.308v-.487a.3.3 0 0 0-.298-.303.3.3 0 0 0-.298.303v.487c-.883.095-1.619.609-1.94 1.308-.678.22-1.13.537-1.21.895-.308.16-.722.3-1.343.38-.528.068.017.655.833 1.096l1.776 7.086h1.062c.731.941-1.352 1.565-.083 2.62h.175v1.378h-.345a.244.244 0 0 0-.242.246c0 .136.108.246.242.246h.345v.23h-.345a.244.244 0 0 0-.242.246c0 .136.108.246.242.246h.345v7.616h-.345a.244.244 0 0 0-.242.245c0 .136.108.246.242.246h.345v.23h-.345a.244.244 0 0 0-.242.246c0 .136.108.246.242.246h.345v3.883h-.423c-.344 2.207-.688 11.57-1.032 13.778h-.48v2.743h5.927v-2.743h-.48c-.345-2.208-.688-11.571-1.032-13.778l-.423.002v-3.885h.344c.134 0 .242-.11.242-.246a.244.244 0 0 0-.242-.246h-.344v-.23h.344c.134 0 .242-.11.242-.246a.244.244 0 0 0-.242-.245h-.344v-7.616h.344c.134 0 .242-.11.242-.246a.244.244 0 0 0-.242-.246h-.344v-.23h.344c.134 0 .242-.11.242-.246a.244.244 0 0 0-.242-.246h-.344v-1.377h.174c1.27-1.056-.814-1.68-.083-2.62h1.062zm-3.09-6.705c.28.1.587.155.908.155.321 0 .628-.055.908-.155v5.717h-1.816v-5.717zm2.577 5.624v-5.565c.204.034.419.053.64.053.245 0 .51-.047.773-.126l-1.413 5.638zm-4.75-5.638c.263.079.527.126.772.126.221 0 .436-.019.64-.053v5.565l-1.412-5.638z" id="el_JOQ-OW6P_i"/><path d="M653.182 219.781l1.777-7.086c.815-.44 1.36-1.028.832-1.096-.62-.08-1.035-.22-1.344-.38-.079-.358-.531-.675-1.208-.895-.322-.7-1.058-1.213-1.941-1.308v-.487a.3.3 0 0 0-.298-.303.3.3 0 0 0-.298.303v.487c-.883.095-1.619.609-1.94 1.308-.678.22-1.13.537-1.21.895-.308.16-.722.3-1.343.38-.528.068.017.655.833 1.096l1.776 7.086h1.062c.731.941-1.352 1.565-.083 2.62h.175v1.378h-.345a.244.244 0 0 0-.242.246c0 .136.108.246.242.246h.345v.23h-.345a.244.244 0 0 0-.242.246c0 .136.108.246.242.246h.345v7.616h-.345a.244.244 0 0 0-.242.245c0 .136.108.246.242.246h.345v.23h-.345a.244.244 0 0 0-.242.246c0 .136.108.246.242.246h.345v3.883h-.423c-.344 2.207-.688 11.57-1.032 13.778h-.48v2.743h5.927v-2.743h-.48c-.345-2.208-.688-11.571-1.032-13.778l-.423.002v-3.885h.344c.134 0 .242-.11.242-.246a.244.244 0 0 0-.242-.246h-.344v-.23h.344c.134 0 .242-.11.242-.246a.244.244 0 0 0-.242-.245h-.344v-7.616h.344c.134 0 .242-.11.242-.246a.244.244 0 0 0-.242-.246h-.344v-.23h.344c.134 0 .242-.11.242-.246a.244.244 0 0 0-.242-.246h-.344v-1.377h.174c1.27-1.056-.814-1.68-.083-2.62h1.062zm-3.09-6.705c.28.1.587.155.908.155.321 0 .628-.055.908-.155v5.717h-1.816v-5.717zm2.577 5.624v-5.565c.204.034.419.053.64.053.245 0 .51-.047.773-.126l-1.413 5.638zm-4.75-5.638c.263.079.527.126.772.126.221 0 .436-.019.64-.053v5.565l-1.412-5.638z" id="el_kIJf0QZPnA"/><path d="M998.182 219.781l1.777-7.086c.815-.44 1.36-1.028.832-1.096-.62-.08-1.035-.22-1.344-.38-.079-.358-.531-.675-1.208-.895-.322-.7-1.058-1.213-1.941-1.308v-.487a.3.3 0 0 0-.298-.303.3.3 0 0 0-.298.303v.487c-.883.095-1.619.609-1.94 1.308-.678.22-1.13.537-1.21.895-.308.16-.722.3-1.343.38-.528.068.017.655.833 1.096l1.776 7.086h1.062c.731.941-1.352 1.565-.083 2.62h.175v1.378h-.345a.244.244 0 0 0-.242.246c0 .136.108.246.242.246h.345v.23h-.345a.244.244 0 0 0-.242.246c0 .136.108.246.242.246h.345v7.616h-.345a.244.244 0 0 0-.242.245c0 .136.108.246.242.246h.345v.23h-.345a.244.244 0 0 0-.242.246c0 .136.108.246.242.246h.345v3.883h-.423c-.344 2.207-.688 11.57-1.032 13.778h-.48v2.743h5.927v-2.743h-.48c-.345-2.208-.688-11.571-1.032-13.778l-.423.002v-3.885h.344c.134 0 .242-.11.242-.246a.244.244 0 0 0-.242-.246h-.344v-.23h.344c.134 0 .242-.11.242-.246a.244.244 0 0 0-.242-.245h-.344v-7.616h.344c.134 0 .242-.11.242-.246a.244.244 0 0 0-.242-.246h-.344v-.23h.344c.134 0 .242-.11.242-.246a.244.244 0 0 0-.242-.246h-.344v-1.377h.174c1.27-1.056-.814-1.68-.083-2.62h1.062zm-3.09-6.705c.28.1.587.155.908.155.321 0 .628-.055.908-.155v5.717h-1.816v-5.717zm2.577 5.624v-5.565c.204.034.419.053.64.053.245 0 .51-.047.773-.126l-1.413 5.638zm-4.75-5.638c.263.079.527.126.772.126.221 0 .436-.019.64-.053v5.565l-1.412-5.638z" id="el_VgdzB0LMXS"/><path d="M1409.182 219.781l1.777-7.086c.815-.44 1.36-1.028.832-1.096-.62-.08-1.035-.22-1.344-.38-.079-.358-.531-.675-1.208-.895-.322-.7-1.058-1.213-1.941-1.308v-.487a.3.3 0 0 0-.298-.303.3.3 0 0 0-.298.303v.487c-.883.095-1.619.609-1.94 1.308-.678.22-1.13.537-1.21.895-.308.16-.722.3-1.343.38-.528.068.017.655.833 1.096l1.776 7.086h1.062c.731.941-1.352 1.565-.083 2.62h.175v1.378h-.345a.244.244 0 0 0-.242.246c0 .136.108.246.242.246h.345v.23h-.345a.244.244 0 0 0-.242.246c0 .136.108.246.242.246h.345v7.616h-.345a.244.244 0 0 0-.242.245c0 .136.108.246.242.246h.345v.23h-.345a.244.244 0 0 0-.242.246c0 .136.108.246.242.246h.345v3.883h-.423c-.344 2.207-.688 11.57-1.032 13.778h-.48v2.743h5.927v-2.743h-.48c-.345-2.208-.688-11.571-1.032-13.778l-.423.002v-3.885h.344c.134 0 .242-.11.242-.246a.244.244 0 0 0-.242-.246h-.344v-.23h.344c.134 0 .242-.11.242-.246a.244.244 0 0 0-.242-.245h-.344v-7.616h.344c.134 0 .242-.11.242-.246a.244.244 0 0 0-.242-.246h-.344v-.23h.344c.134 0 .242-.11.242-.246a.244.244 0 0 0-.242-.246h-.344v-1.377h.174c1.27-1.056-.814-1.68-.083-2.62h1.062zm-3.09-6.705c.28.1.587.155.908.155.322 0 .628-.055.908-.155v5.717h-1.816v-5.717zm2.577 5.624v-5.565c.204.034.419.053.64.053.245 0 .51-.047.773-.126l-1.413 5.638zm-4.75-5.638c.263.079.527.126.772.126.221 0 .436-.019.64-.053v5.565l-1.412-5.638z" id="el_P_g-hlPq0s"/><g id="el_wQSm-DD48a"><path d="M16.1 10.734v20.752" id="el_F_Qwyts93h" stroke-linecap="round" stroke-linejoin="round"/><path d="M73.349 10.734v20.752" id="el_vl748OwR1r" stroke-linecap="round" stroke-linejoin="round"/><path d="M5.005 22.39c-.83 1.004-1.425 2.314-1.785 3.927v5.17" id="el_7R4SciXzJU" stroke-linecap="round" stroke-linejoin="round"/><path d="M61.537 22.39c-.83 1.004-1.425 2.314-1.785 3.927v5.17" id="el_lCGbSnWKMe" stroke-linecap="round" stroke-linejoin="round"/><path id="el_kWU60oL79h" d="M10.734 0H78v11.807H10.734z"/><path id="el_dC576yRcAZ_" d="M0 16.459h78v6.798H0z"/></g><g id="el_ZwGpmJ4om00"><path id="el_KJsEjsWHSs_" d="M0 0h44v29H0z"/><g id="el_Bk92ou8Yj_x" fill-rule="nonzero"><path d="M19.317.007c-4.562.41-7.928 2.73-9.89 6.085-1.315 1.68-3.942 6.81-4.898 9.495C2.797 18.927 1.286 22.9.104 26.481c-.722 2.19 2.522 3.62 3.25 1.42.883-2.68 1.951-5.577 3.158-8.266 1.198 2.732 2.415 5.455 3.722 8.136 1.013 2.08 4.061.256 3.052-1.818-1.346-2.759-2.596-5.562-3.827-8.374.016-.055.035-.108.052-.162.205.06.432.078.68.03l5.655-1.08c.805-.155 1.114-1.053.987-1.772-.381-2.155-1.586-3.655-3.085-5.073-.223-.772-.965-1.455-1.79-2.133 1.67-2.752 4.398-4.246 7.947-4.564 1.811-.162 1.208-2.98-.588-2.818zm-6.865 12.25c.466.493.863 1.013 1.162 1.615l-2.735.523c.46-.755.989-1.467 1.573-2.139z" id="el_Bpkg90eYNrP"/><circle id="el_l8PA6icx7ue" cx="16.5" cy="7.5" r="2.5"/></g><path id="el_1fipBGD6dDE" d="M0 29h44v2H0z"/></g><path d="M187.354 74.085h2.492v.2c0 .453-.054.854-.16 1.203-.105.323-.28.625-.528.906-.56.63-1.272.945-2.137.945-.843 0-1.566-.304-2.167-.914a3.03 3.03 0 0 1-.903-2.203c0-.875.306-1.617.918-2.227.612-.612 1.357-.917 2.235-.917.47 0 .911.096 1.32.289.39.192.775.505 1.152.937l-.648.621c-.495-.659-1.098-.988-1.809-.988-.638 0-1.173.22-1.605.66-.433.432-.649.974-.649 1.625 0 .672.241 1.225.723 1.66.45.404.939.606 1.465.606.448 0 .85-.151 1.207-.453.357-.305.556-.67.597-1.094h-1.503v-.856zm3.335.098c0-.849.312-1.578.934-2.188a3.073 3.073 0 0 1 2.234-.914c.86 0 1.597.308 2.211.922.618.615.926 1.353.926 2.215 0 .867-.31 1.603-.93 2.207a3.111 3.111 0 0 1-2.253.91c-.78 0-1.478-.27-2.098-.808-.682-.597-1.024-1.378-1.024-2.344zm.918.012c0 .666.224 1.215.672 1.644.446.43.96.645 1.543.645a2.17 2.17 0 0 0 1.602-.656c.435-.443.652-.982.652-1.618 0-.643-.215-1.182-.644-1.617-.427-.437-.956-.656-1.586-.656-.628 0-1.158.219-1.59.656-.432.432-.649.966-.649 1.602zm7.442-3v5.175h1.773v.856h-2.683v-6.031h.91zm2.637 6.03v-6.03h1.265c.607 0 1.086.06 1.438.18.377.117.72.316 1.027.597.622.568.934 1.314.934 2.238 0 .927-.325 1.677-.973 2.25a2.84 2.84 0 0 1-1.023.598c-.334.112-.806.168-1.418.168h-1.25zm.91-.855h.41c.409 0 .749-.042 1.02-.128a2.07 2.07 0 0 0 .734-.434c.448-.409.672-.941.672-1.598 0-.661-.222-1.198-.664-1.61-.399-.366-.986-.55-1.762-.55h-.41v4.32zm10.468-2.285h2.493v.2c0 .453-.054.854-.16 1.203-.105.323-.28.625-.528.906-.56.63-1.272.945-2.137.945-.843 0-1.566-.304-2.168-.914a3.03 3.03 0 0 1-.902-2.203c0-.875.306-1.617.918-2.227.612-.612 1.357-.917 2.234-.917.472 0 .912.096 1.32.289.391.192.776.505 1.153.937l-.648.621c-.495-.659-1.098-.988-1.809-.988-.638 0-1.173.22-1.605.66-.433.432-.649.974-.649 1.625 0 .672.241 1.225.723 1.66.45.404.939.606 1.465.606.448 0 .85-.151 1.207-.453.356-.305.556-.67.597-1.094h-1.504v-.856zm4.856.535l-1.969-3.425h1.047l1.379 2.41 1.383-2.41h1.047l-1.977 3.425v2.606h-.91V74.62zm3.371 2.606l1.27-6.484 2.07 4.687 2.144-4.687 1.141 6.484h-.934l-.582-3.64-1.785 3.917-1.734-3.922-.649 3.645h-.941z" id="el_BmfYjDMLCxw" fill-rule="nonzero"/><path id="el_uYe5ZkMDlTZ" d="M276 136.226h9l-12 28h-10z"/><path id="el_lsG_9wuw5cJ" d="M291 136.226h8l-6 28h-10z"/><path id="el_e7SvkDRJrJT" d="M305 136.226h8l1 28h-10z"/><path id="el_5xRygrUh5Zw" d="M319 136.226h8l9 28h-11z"/><path d="M299.236 174.49a4.5 4.5 0 0 1-.42 1.236 3.358 3.358 0 0 1-.726.948 3.14 3.14 0 0 1-1.014.612 3.597 3.597 0 0 1-1.272.216c-.52 0-1.006-.088-1.458-.264a3.131 3.131 0 0 1-1.17-.792 3.78 3.78 0 0 1-.774-1.302c-.188-.516-.282-1.118-.282-1.806 0-.672.086-1.278.258-1.818.172-.54.418-.996.738-1.368a3.21 3.21 0 0 1 1.17-.858c.46-.2.974-.3 1.542-.3.496 0 .946.074 1.35.222.404.148.752.352 1.044.612.292.26.524.566.696.918.172.352.278.728.318 1.128h-1.668c-.112-.456-.328-.81-.648-1.062a1.7 1.7 0 0 0-1.08-.378c-.696 0-1.208.25-1.536.75-.328.5-.492 1.186-.492 2.058 0 .888.162 1.578.486 2.07.324.492.81.738 1.458.738.496 0 .894-.134 1.194-.402.3-.268.506-.654.618-1.158h1.668zm.408 2.736v-5.904h1.56v5.904h-1.56zm0-6.612v-1.452h1.56v1.452h-1.56zm5.616 2.724h1.452v1.68c0 .312-.046.61-.138.894a2.093 2.093 0 0 1-.432.756c-.196.22-.444.394-.744.522s-.658.192-1.074.192c-.432 0-.8-.064-1.104-.192a2.089 2.089 0 0 1-.75-.516 1.963 1.963 0 0 1-.426-.756 3.104 3.104 0 0 1-.132-.912v-5.28h1.536v1.596h3.264v1.104h-3.264v2.424c0 .376.07.666.21.87.14.204.37.306.69.306.312 0 .542-.1.69-.3.148-.2.222-.484.222-.852v-1.536zm5.844 3.108c-.112.264-.314.47-.606.618a2.159 2.159 0 0 1-.99.222c-.312 0-.6-.05-.864-.15a1.954 1.954 0 0 1-1.134-1.104 2.28 2.28 0 0 1-.162-.882v-3.828h1.56v3.6c0 .736.332 1.104.996 1.104.36 0 .65-.104.87-.312.22-.208.33-.472.33-.792v-3.6h1.56v6.06c0 .416-.07.788-.21 1.116-.14.328-.332.604-.576.828a2.536 2.536 0 0 1-.864.516 3.1 3.1 0 0 1-1.062.18c-.872 0-1.524-.22-1.956-.66-.432-.44-.648-1.044-.648-1.812h1.452c0 .352.102.628.306.828.204.2.51.3.918.3a.95.95 0 0 0 .408-.09c.128-.06.242-.144.342-.252.1-.108.18-.242.24-.402.06-.16.09-.336.09-.528v-.96z" id="el_Ni6ymYTzGgo" fill-rule="nonzero"/><path d="M279.194 181.954c-.272.16-.592.24-.96.24a3 3 0 0 1-.372-.024l.3-1.152c.104.016.204.024.3.024.52 0 .916-.272 1.188-.816h1.908c.952 0 1.764.352 2.436 1.056.288.392.432.832.432 1.32 0 .624-.268 1.216-.804 1.776-.424.44-.916.7-1.476.78.304.448.468 1.016.492 1.704 0 .207-.022.481-.067.824l-.071.519c-.036.277-.054.469-.054.577 0 .208.04.356.12.444l.2.225c.031.034.049.05.052.05.08.08.176.12.288.12.12 0 .292-.043.516-.131l.228 1.284c-.6.344-1.168.516-1.704.516-.392 0-.716-.084-.972-.252-.472-.336-.708-.808-.708-1.416 0-.208.036-.47.108-.786.072-.316.148-.638.228-.966.12-.56.18-1.036.18-1.428 0-.568-.128-.956-.384-1.164l.276-1.092c1 .024 1.612-.452 1.836-1.428a1.41 1.41 0 0 0 .024-.252c0-.408-.172-.704-.516-.888a1.45 1.45 0 0 0-.78-.168.648.648 0 0 1-.204.012l-2.028 7.764h-1.908l1.896-7.272zm5.976 5.376c.048.295.14.493.276.594l.072.042c.048.032.108.064.18.096.576.008 1.076-.204 1.5-.636l-.42 1.608a1.962 1.962 0 0 1-1.08.324c-.336 0-.672-.084-1.008-.252-.736-.36-1.104-1.048-1.104-2.064 0-.544.128-1.08.384-1.608a3.557 3.557 0 0 1 1.164-1.386c.496-.348.996-.522 1.5-.522.224 0 .435.036.634.107l.146.06c.632.217.948.697.948 1.44 0 .137-.012.26-.036.373-.112.504-.416.948-.912 1.332-.496.384-1.036.576-1.62.576-.216 0-.424-.028-.624-.084zm.096-1.044c.152.032.304.048.456.048.4 0 .728-.096.984-.288.264-.232.396-.464.396-.696a.59.59 0 0 0-.144-.372c-.096-.12-.208-.18-.336-.18-.28 0-.564.184-.852.552-.24.304-.408.616-.504.936zm7.356-1.128c-.456-.328-.992-.492-1.608-.492a.746.746 0 0 0-.408.132c-.136.088-.204.196-.204.324 0 .112.132.242.395.391l.451.234c.3.16.51.287.63.383.336.28.504.616.504 1.008 0 .68-.228 1.226-.684 1.638-.456.412-1.028.618-1.716.618-.193 0-.453-.033-.78-.1l-.204-.044c-.464-.096-.764-.196-.9-.3l.336-1.332c.44.256.968.384 1.584.384.528 0 .792-.148.792-.444 0-.224-.158-.424-.474-.6-.316-.176-.63-.348-.942-.516-.328-.248-.492-.56-.492-.936 0-.616.24-1.132.72-1.548a2.405 2.405 0 0 1 1.62-.588c.712 0 1.284.148 1.716.444l-.336 1.344zm1.848 4.068h-1.656l1.152-4.44h-.756l.324-1.236h.756l.648-2.46h1.656l-.636 2.46h1.044l-.336 1.236h-1.032l-1.164 4.44zm2.784-.012c-.648-.28-.972-.924-.972-1.932 0-.56.12-1.12.36-1.68.264-.624.624-1.134 1.08-1.53.456-.396.912-.594 1.368-.594.448 0 .804.184 1.068.552l.132-.492h1.62l-1.044 4.032a.57.57 0 0 0-.024.156c0 .16.092.24.276.24.104 0 .22-.024.348-.072l-.3 1.056c-.416.28-.8.42-1.152.42-.4 0-.736-.18-1.008-.54-.416.32-.828.48-1.236.48-.184 0-.356-.032-.516-.096zm2.004-4.452c-.192 0-.398.12-.618.36-.22.24-.402.556-.546.948-.136.36-.204.708-.204 1.044 0 .536.14.804.42.804.184 0 .388-.128.612-.384.224-.256.408-.584.552-.984.144-.36.216-.7.216-1.02 0-.512-.144-.768-.432-.768zm4.527 3.097l.069.047a.31.31 0 0 0 .204.06c.144 0 .316-.048.516-.144.24-.12.436-.36.588-.72l.924-3.54h1.656l-1.476 5.712h-1.668l.096-.348a3.08 3.08 0 0 1-1.464.384c-.104 0-.192-.004-.264-.012-.656-.168-.984-.648-.984-1.44 0-.136.012-.264.036-.384l1.032-3.912h1.656l-1.032 3.912a.61.61 0 0 0-.012.12c0 .109.041.197.123.265zm7.977-4.225l-.372 1.56a1.185 1.185 0 0 0-.588-.18c-.424 0-.756.292-.996.876l-.9 3.336h-1.656l1.524-5.664h1.656l-.096.36c.392-.248.748-.372 1.068-.372.144 0 .264.028.36.084zm.768 5.58c-.648-.28-.972-.924-.972-1.932 0-.56.12-1.12.36-1.68.264-.624.624-1.134 1.08-1.53.456-.396.912-.594 1.368-.594.448 0 .804.184 1.068.552l.132-.492h1.62l-1.044 4.032a.57.57 0 0 0-.024.156c0 .16.092.24.276.24.104 0 .22-.024.348-.072l-.3 1.056c-.416.28-.8.42-1.152.42-.4 0-.736-.18-1.008-.54-.416.32-.828.48-1.236.48-.184 0-.356-.032-.516-.096zm2.004-4.452c-.192 0-.398.12-.618.36-.22.24-.402.556-.546.948-.136.36-.204.708-.204 1.044 0 .536.14.804.42.804.184 0 .388-.128.612-.384.224-.256.408-.584.552-.984.144-.36.216-.7.216-1.02 0-.512-.144-.768-.432-.768zm5.448 5.509l.108-1.045.996-3.804a.321.321 0 0 0 .024-.12.328.328 0 0 0-.123-.265l-.069-.047a.287.287 0 0 0-.192-.072c-.144 0-.3.068-.468.204-.12.096-.24.196-.36.3-.12.104-.212.22-.276.348l-.912 3.456h-1.656l1.488-5.664h1.656l-.096.384c.448-.264.884-.396 1.308-.396.152 0 .284.016.396.048.656.296.984.788.984 1.476 0 .128-.012.244-.036.348l-1.008 3.804c-.008.568.164.868.516.9.184.008.356-.068.516-.228l.36 1.08c-.376.4-.916.616-1.62.648-.464 0-.844-.164-1.14-.492-.256-.272-.388-.56-.396-.863zm4.668-1.045h-1.656l1.152-4.44h-.756l.324-1.236h.756l.648-2.46h1.656l-.636 2.46h1.044l-.336 1.236h-1.032l-1.164 4.44z" id="el_xrtSxLhKY9C" fill-rule="nonzero"/><path id="el_6vwM1gBTaOO" d="M279 194.226h45v3h-45z"/><path id="el_2f1hcCn6lYz" d="M279 201.226h45v3h-45z"/><path id="el_yvQDp_367Wl" d="M279 208.226h45v3h-45z"/><path id="el_eSxc5zK877R" d="M279 215.226h45v3h-45z"/><g id="el_ZmnHto1G64W"><path d="M1 0h12a1 1 0 0 1 1 1v50a1 1 0 0 1-1 1H1a1 1 0 0 1-1-1V1a1 1 0 0 1 1-1z" id="el_ZVCEYlvmsEP"/><path d="M1 56h12a1 1 0 0 1 1 1v87a1 1 0 0 1-1 1H1a1 1 0 0 1-1-1V57a1 1 0 0 1 1-1z" id="el_FTXHQxUQ_MF"/><path d="M9.268 12l-.036-.792c-.192.336-.5.598-.924.786-.424.188-.912.282-1.464.282-.552 0-1.05-.118-1.494-.354a3.615 3.615 0 0 1-1.14-.948 4.31 4.31 0 0 1-.726-1.368 5.142 5.142 0 0 1-.252-1.602c0-.584.084-1.134.252-1.65.168-.516.416-.966.744-1.35a3.447 3.447 0 0 1 1.224-.906c.488-.22 1.056-.33 1.704-.33.472 0 .914.068 1.326.204a3.55 3.55 0 0 1 1.08.564c.308.24.556.526.744.858.188.332.298.698.33 1.098h-1.68a1.273 1.273 0 0 0-.192-.522 1.602 1.602 0 0 0-.396-.426 1.987 1.987 0 0 0-.558-.288 2.02 2.02 0 0 0-.654-.108c-.672 0-1.21.25-1.614.75-.404.5-.606 1.226-.606 2.178 0 .328.042.658.126.99.084.332.216.632.396.9.18.268.41.486.69.654.28.168.612.252.996.252.272 0 .526-.048.762-.144.236-.096.442-.228.618-.396s.314-.362.414-.582c.1-.22.15-.454.15-.702H7.324V7.716h3.324V12h-1.38zM6.154 24v-7.968h1.668V24H6.154zm-.726 5.412v2.124h2.088c.448 0 .764-.1.948-.3.184-.2.276-.452.276-.756 0-.312-.09-.568-.27-.768-.18-.2-.478-.3-.894-.3H5.428zM8.452 36v-2.052c0-.384-.088-.658-.264-.822-.176-.164-.504-.246-.984-.246H5.428V36h-1.62v-7.968h4.044c.368 0 .702.058 1.002.174.3.116.558.276.774.48.216.204.382.448.498.732.116.284.174.59.174.918 0 .432-.102.814-.306 1.146a1.645 1.645 0 0 1-.882.702c.352.112.602.284.75.516.148.232.222.58.222 1.044V36H8.452zM4.27 48v-7.968h1.668v6.516h3.948V48H4.27z" id="el_1cndf8NPWbs" fill-rule="nonzero"/><path d="M6.414 65.64V69H4.746v-7.968h5.676v1.392H6.414v1.812h3.504v1.404H6.414zm1.056 9.18h-.012l-1.02 3.168h2.028L7.47 74.82zM9.45 81l-.504-1.644h-2.94L5.442 81H3.678l2.844-7.968h1.932L11.262 81H9.45zm-.54 6.384c-.04-.408-.188-.712-.444-.912-.256-.2-.636-.3-1.14-.3-.472 0-.828.08-1.068.24-.24.16-.36.392-.36.696 0 .256.094.46.282.612.188.152.506.284.954.396l.883.221.419.109c.412.108.766.23 1.062.366.176.08.34.172.492.276.152.104.284.232.396.384.112.152.2.332.264.54.064.208.096.452.096.732 0 .44-.078.818-.234 1.134a2.128 2.128 0 0 1-.66.786 2.92 2.92 0 0 1-1.008.462c-.388.1-.814.15-1.278.15-.496 0-.948-.054-1.356-.162a3.001 3.001 0 0 1-1.056-.498 2.38 2.38 0 0 1-.696-.834c-.168-.332-.256-.722-.264-1.17h1.608c.016.408.182.73.498.966s.742.354 1.278.354c.496 0 .878-.098 1.146-.294.268-.196.402-.474.402-.834a.917.917 0 0 0-.054-.324.704.704 0 0 0-.192-.27 1.33 1.33 0 0 0-.378-.228 3.653 3.653 0 0 0-.612-.186l-1.04-.242a41.033 41.033 0 0 1-.214-.052 5.28 5.28 0 0 1-.93-.318c-.432-.192-.762-.442-.99-.75-.228-.308-.342-.714-.342-1.218 0-.36.06-.69.18-.99.12-.3.302-.558.546-.774a2.57 2.57 0 0 1 .912-.504c.364-.12.79-.18 1.278-.18.504 0 .952.064 1.344.192.392.128.722.308.99.54.268.232.476.508.624.828.148.32.23.672.246 1.056H8.91zM9.03 105v-3.576H5.922V105H4.254v-7.968h1.668v3H9.03v-3h1.68V105H9.03zm-2.376 12v-7.968h1.668V117H6.654zm.834 10.848c.296 0 .576-.054.84-.162.264-.108.494-.272.69-.492.196-.22.35-.502.462-.846.112-.344.168-.752.168-1.224 0-.944-.184-1.66-.552-2.148-.368-.488-.904-.732-1.608-.732-.704 0-1.244.244-1.62.732-.376.488-.564 1.204-.564 2.148 0 .944.19 1.634.57 2.07.38.436.918.654 1.614.654zm0 1.428c-1.232 0-2.178-.36-2.838-1.08-.66-.72-.99-1.756-.99-3.108 0-.672.084-1.276.252-1.812.168-.536.416-.99.744-1.362a3.225 3.225 0 0 1 1.2-.852c.472-.196 1.016-.294 1.632-.294.608 0 1.15.098 1.626.294.476.196.874.482 1.194.858.32.376.564.834.732 1.374.168.54.252 1.15.252 1.83 0 1.376-.326 2.412-.978 3.108-.652.696-1.594 1.044-2.826 1.044zM9.186 141l-3.408-5.352V141H4.23v-7.968h1.764l3.168 5.124v-5.124h1.56V141H9.186z" id="el_1TlieUqKbOW" fill-rule="nonzero"/></g><path id="el_n5zOPdurfmK" d="M83 76.226l3-2.146v155.955l-3 2.191z"/><path id="el_FMVJ2dvBHOn" d="M1134 195.226h88.083v5.586H1216v53.414h-76v-53.414h-6z"/><path id="el_BSO9lVwRn9s" d="M1194.365 196.226h12.393l-66.758 58v-10.468z"/><path id="el_4SBcuabstlD" d="M1184.937 196.598L1140 234.226v-6.468l38.065-31.16z"/><path id="el_358551MEvfK" d="M1138 159.226h77v2h-77z"/><path d="M1171 230.226h14a2 2 0 0 1 2 2v22h-18v-22a2 2 0 0 1 2-2z" id="el_ilvf9f-Hrs8"/><path id="el_GVxIBT5r4mJ" d="M1138 154.226h77v2h-77z"/><rect id="el_cx48NFlnEMl" x="1134.479" y="173.705" width="87.042" height="22.042" rx="2"/><path d="M1144.131 180.592c0-.084.023-.151.069-.201a.252.252 0 0 1 .195-.075h3.984c.352 0 .684.067.996.2a2.594 2.594 0 0 1 1.578 2.386c0 .3-.047.579-.141.837a2.272 2.272 0 0 1-.399.693c.288.264.516.578.684.942a2.73 2.73 0 0 1 .042 2.193c-.14.326-.329.612-.567.858a2.697 2.697 0 0 1-.834.585 2.409 2.409 0 0 1-1.005.216h-4.338a.281.281 0 0 1-.192-.063c-.048-.042-.072-.107-.072-.195v-8.376zm4.836 5.85a1.062 1.062 0 0 0-.261-.681 1.01 1.01 0 0 0-.294-.231.78.78 0 0 0-.369-.09h-1.584v2.004h1.584a.807.807 0 0 0 .366-.084.977.977 0 0 0 .294-.225 1.031 1.031 0 0 0 .264-.693zm-.318-3.486a.853.853 0 0 0-.54-.801.954.954 0 0 0-.366-.07h-1.284v1.74h1.266c.136 0 .261-.02.375-.062a.813.813 0 0 0 .48-.456.872.872 0 0 0 .069-.351zm4.972-2.376c0-.072.022-.134.066-.186.044-.052.11-.078.198-.078h1.764c.06 0 .124.024.192.072a.224.224 0 0 1 .102.192v8.382c0 .176-.098.264-.294.264h-1.764c-.176 0-.264-.088-.264-.264v-8.382zm10.876 2.25a2.598 2.598 0 0 0-.654-.336c-.232-.08-.48-.12-.744-.12a2.17 2.17 0 0 0-1.623.702 2.379 2.379 0 0 0-.465.759 2.55 2.55 0 0 0-.168.927c0 .328.056.636.168.924.112.288.267.539.465.753a2.166 2.166 0 0 0 1.623.693c.14 0 .279-.01.417-.03.138-.02.285-.046.441-.078v-1.572c0-.076.022-.14.066-.19.044-.05.11-.074.198-.074h1.632c.06 0 .124.024.192.072a.224.224 0 0 1 .102.192v2.904c0 .108-.058.196-.174.264a3.296 3.296 0 0 1-.624.33 5.127 5.127 0 0 1-.714.228 6.383 6.383 0 0 1-1.494.18 4.554 4.554 0 0 1-3.243-1.341 4.652 4.652 0 0 1-.717-.924 4.483 4.483 0 0 1-.462-1.092 4.554 4.554 0 0 1-.162-1.221 4.554 4.554 0 0 1 .624-2.32c.2-.341.439-.652.717-.932.278-.28.587-.52.927-.717.34-.198.705-.352 1.095-.462.39-.11.797-.165 1.221-.165a4.504 4.504 0 0 1 2.562.78.41.41 0 0 1 .156.159c.036.066.028.14-.024.225l-.972 1.404a.424.424 0 0 1-.156.129c-.052.022-.122.005-.21-.051zm9.65-2.25a.32.32 0 0 1 .084-.186.264.264 0 0 1 .204-.078h2.076c.148 0 .244.076.288.228l1.632 5.448 1.644-5.448c.056-.152.158-.228.306-.228h2.052c.072 0 .137.025.195.075a.28.28 0 0 1 .099.189l.284 2.801.145 1.39c.146 1.386.289 2.783.429 4.19v.03c0 .157-.088.235-.264.235h-1.698c-.158 0-.25-.065-.28-.194l-.53-4.708-1.35 4.668a.338.338 0 0 1-.087.144c-.05.056-.099.084-.147.084h-1.578c-.048 0-.099-.027-.153-.081a.346.346 0 0 1-.075-.101l-1.362-4.702-.522 4.626c-.008.176-.106.264-.294.264h-1.698c-.172 0-.258-.088-.258-.264l.858-8.382zm14.578-.03a.178.178 0 0 1 .039-.078.43.43 0 0 1 .183-.135.282.282 0 0 1 .102-.021h1.536c.068 0 .126.02.174.063l.08.077.028.034.15.342 3.15 8.124c.032.08.026.145-.018.195-.044.05-.12.075-.228.075h-1.722a.377.377 0 0 1-.213-.051.33.33 0 0 1-.117-.171l-.118-.305-.344-.913h-3.186l-.231.609c-.078.202-.155.405-.231.609-.052.148-.154.222-.306.222h-1.77a.293.293 0 0 1-.189-.06c-.05-.04-.059-.1-.027-.18l3.258-8.436zm1.092 2.568c-.05.136-.102.28-.153.43l-.194.585-.115.359c-.076.24-.153.477-.231.71l-.155.449-.076.209h1.842l-.918-2.742zm6.556-2.526c0-.084.022-.151.066-.201.044-.05.11-.075.198-.075h3.876c.412 0 .798.077 1.158.23.36.155.674.364.942.628.268.264.479.573.633.927.154.354.231.73.231 1.13 0 .273-.037.532-.111.778a2.898 2.898 0 0 1-.78 1.272 3.08 3.08 0 0 1-.597.447l1.609 3.03.041.072a.411.411 0 0 1 .066.198c0 .064-.021.113-.063.147a.264.264 0 0 1-.171.05h-2.058a.3.3 0 0 1-.183-.06.272.272 0 0 1-.105-.161l-1.458-2.742h-.972v2.706c0 .172-.092.258-.276.258h-1.782a.281.281 0 0 1-.192-.063c-.048-.042-.072-.107-.072-.195v-8.376zm4.698 2.664c0-.12-.022-.24-.066-.36a1.17 1.17 0 0 0-.186-.33 1.09 1.09 0 0 0-.288-.252.985.985 0 0 0-.372-.132l-.315-.021a5.279 5.279 0 0 0-.321-.01h-.828v2.203l1.206-.002.09-.004a4.11 4.11 0 0 0 .186-.018.947.947 0 0 0 .378-.123.986.986 0 0 0 .282-.246c.076-.098.134-.208.174-.33.04-.122.06-.247.06-.375zm4.246-2.676c0-.08.027-.144.081-.192a.292.292 0 0 1 .201-.072h6.462c.072 0 .136.022.192.066a.27.27 0 0 1 .096.198v1.494a.338.338 0 0 1-.075.207.251.251 0 0 1-.213.099h-2.07v6.564a.285.285 0 0 1-.078.195.261.261 0 0 1-.204.087h-1.764a.283.283 0 0 1-.192-.081.26.26 0 0 1-.09-.201v-6.564h-2.064a.278.278 0 0 1-.201-.078c-.054-.052-.081-.128-.081-.228v-1.494z" id="el_egRuAnjmrMC" fill-rule="nonzero"/><path d="M1275.311 153.726h69.378a2.5 2.5 0 0 1 2.292 1.503l8.261 19a2.5 2.5 0 0 1-2.292 3.497h-85.9a2.5 2.5 0 0 1-2.292-3.497l8.26-19a2.5 2.5 0 0 1 2.293-1.503z" id="el_mfopdfxVUPF"/><path id="el_2bD1iZjRJjo" d="M1276 178.238h68v75.988h-68z"/><path id="el_PlnBn-GCcm9" d="M1299.5 226.726h21v28h-21z"/><path d="M1288.04 154.226l-6.54 23.5" id="el_swxB-_v-9RC" stroke-linecap="round"/><path d="M1302.04 154.226l-2.54 23.5" id="el_kdiGzKkPowQ" stroke-linecap="round"/><path d="M1333.04 154.226l5.46 23.5" id="el_QxxfD4kcyLo" stroke-linecap="round"/><path d="M1318.04 154.226l1.46 23.5" id="el_a6yon-sOBmm" stroke-linecap="round"/><path d="M1271 184.705h77a2.521 2.521 0 0 1 2.521 2.52v28a2.521 2.521 0 0 1-2.521 2.522h-77a2.521 2.521 0 0 1-2.521-2.521v-28a2.521 2.521 0 0 1 2.521-2.521z" id="el_S8-12qqtad1"/><path d="M1301.196 195.146l.264-1.092.112.01.296.002c.784-.056 1.256-.492 1.416-1.308.016-.08.024-.152.024-.216 0-.432-.172-.744-.516-.936a1.231 1.231 0 0 0-.78-.168.536.536 0 0 1-.204.024l-2.028 7.764h-1.908l1.896-7.272c-.272.16-.592.24-.96.24a3 3 0 0 1-.372-.024l.3-1.152c.104.016.204.024.3.024.52 0 .916-.272 1.188-.816l1.548-.012c1.344-.016 2.276.34 2.796 1.068.264.336.396.724.396 1.164 0 .416-.112.818-.336 1.206a2.54 2.54 0 0 1-.888.918c.52.432.78 1.02.78 1.764 0 .448-.108.9-.324 1.356-.256.528-.598.936-1.026 1.224-.428.288-.874.432-1.338.432-.262 0-.515-.046-.756-.138l-.18-.078c-.088-.04-.308-.152-.66-.336l.324-1.32c.064.072.136.136.216.192.184.136.38.212.588.228a.69.69 0 0 0 .24.036c.256 0 .508-.092.756-.276a1.43 1.43 0 0 0 .54-.876c.024-.136.036-.26.036-.372 0-.52-.252-.88-.756-1.08a2.494 2.494 0 0 0-.984-.156l.012-.024h-.012zm5.388 2.184c.048.295.14.493.276.594l.072.042c.048.032.108.064.18.096.576.008 1.076-.204 1.5-.636l-.42 1.608a1.962 1.962 0 0 1-1.08.324c-.336 0-.672-.084-1.008-.252-.736-.36-1.104-1.048-1.104-2.064 0-.544.128-1.08.384-1.608a3.557 3.557 0 0 1 1.164-1.386c.496-.348.996-.522 1.5-.522.224 0 .435.036.634.107l.146.06c.632.217.948.697.948 1.44 0 .137-.012.26-.036.373-.112.504-.416.948-.912 1.332-.496.384-1.036.576-1.62.576-.216 0-.424-.028-.624-.084zm.096-1.044c.152.032.304.048.456.048.4 0 .728-.096.984-.288.264-.232.396-.464.396-.696a.59.59 0 0 0-.144-.372c-.096-.12-.208-.18-.336-.18-.28 0-.564.184-.852.552-.24.304-.408.616-.504.936zm3.984 2.928c-.648-.28-.972-.924-.972-1.932 0-.56.12-1.12.36-1.68.264-.624.624-1.134 1.08-1.53.456-.396.912-.594 1.368-.594.448 0 .804.184 1.068.552l.132-.492h1.62l-1.044 4.032a.57.57 0 0 0-.024.156c0 .16.092.24.276.24.104 0 .22-.024.348-.072l-.3 1.056c-.416.28-.8.42-1.152.42-.4 0-.736-.18-1.008-.54-.416.32-.828.48-1.236.48-.184 0-.356-.032-.516-.096zm2.004-4.452c-.192 0-.398.12-.618.36-.22.24-.402.556-.546.948-.136.36-.204.708-.204 1.044 0 .536.14.804.42.804.184 0 .388-.128.612-.384.224-.256.408-.584.552-.984.144-.36.216-.7.216-1.02 0-.512-.144-.768-.432-.768zm4.527 3.097l.069.047a.31.31 0 0 0 .204.06c.144 0 .316-.048.516-.144.24-.12.436-.36.588-.72l.924-3.54h1.656l-1.476 5.712h-1.668l.096-.348a3.08 3.08 0 0 1-1.464.384c-.104 0-.192-.004-.264-.012-.656-.168-.984-.648-.984-1.44 0-.136.012-.264.036-.384l1.032-3.912h1.656l-1.032 3.912a.61.61 0 0 0-.012.12c0 .109.041.197.123.265zm5.637 1.367h-1.656l1.152-4.44h-.756l.324-1.236h.756l.648-2.46h1.656l-.636 2.46h1.044l-.336 1.236h-1.032l-1.164 4.44zm7.944-5.676l-3.468 5.676-.392.628a8.275 8.275 0 0 1-.304.452 3.918 3.918 0 0 1-.912.864c-.472.328-.932.492-1.38.492-.68-.032-1.016-.248-1.008-.648l.78-1.08c.008.16.124.236.348.228.376-.032.78-.344 1.212-.936l-.552-5.688h1.656l.324 3.336 2.04-3.324h1.656z" id="el_ubmlw5V8yrJ" fill-rule="nonzero"/><path d="M1294.344 208.308l.314.269c.106.094.227.187.363.279.204.136.406.242.606.318.2.076.41.114.63.114.204 0 .375-.023.513-.07a.865.865 0 0 0 .327-.182.648.648 0 0 0 .171-.264.981.981 0 0 0 .051-.318.469.469 0 0 0-.141-.333 1.46 1.46 0 0 0-.345-.261 2.931 2.931 0 0 0-.426-.195l-.384-.135a8.78 8.78 0 0 1-1.26-.543c-.36-.194-.66-.41-.9-.648-.24-.238-.42-.5-.54-.786a2.45 2.45 0 0 1-.18-.957c0-.372.075-.71.225-1.014.15-.304.364-.564.642-.78a3.055 3.055 0 0 1 1.005-.501 4.55 4.55 0 0 1 1.314-.177c.364 0 .713.04 1.047.123a3.987 3.987 0 0 1 1.374.642c.122.086.229.169.321.249.092.08.165.156.219.228.054.072.081.134.081.186 0 .052-.013.1-.039.144a.913.913 0 0 1-.117.15l-.918.978c-.068.068-.136.102-.204.102a.262.262 0 0 1-.153-.048 1.956 1.956 0 0 1-.153-.12l-.054-.048a4.812 4.812 0 0 0-.267-.21 2.377 2.377 0 0 0-.315-.195 2.116 2.116 0 0 0-.354-.144 1.283 1.283 0 0 0-.378-.057c-.132 0-.256.01-.372.033a1.04 1.04 0 0 0-.306.105.582.582 0 0 0-.21.189.502.502 0 0 0-.078.285c0 .112.028.209.084.29.056.083.14.159.252.229.112.07.251.136.417.198.166.062.359.129.579.2.424.14.815.288 1.173.442.358.154.667.336.927.546.26.21.463.46.609.753.146.292.219.646.219 1.062 0 .44-.09.839-.27 1.197-.18.358-.427.663-.741.915a3.46 3.46 0 0 1-1.107.585c-.424.138-.88.207-1.368.207-.46 0-.912-.082-1.356-.246a5.213 5.213 0 0 1-1.242-.66 3.202 3.202 0 0 1-.405-.342l-.291-.303-.012-.01-.012-.014-.012-.01c-.092-.1-.138-.18-.138-.24 0-.067.046-.143.138-.227l1.038-.99c.084-.06.152-.09.204-.09.036 0 .074.012.114.036a.885.885 0 0 1 .09.064zm15.399 2.474a.535.535 0 0 1-.036.195.3.3 0 0 1-.07.107l-.05.04a.3.3 0 0 1-.156.084.811.811 0 0 1-.156.018h-1.182a.53.53 0 0 1-.204-.033.315.315 0 0 1-.126-.093.54.54 0 0 1-.081-.147l-.069-.19-.078-.27a3.499 3.499 0 0 1-.369.319 2.86 2.86 0 0 1-.99.477c-.19.05-.387.075-.591.075a3.925 3.925 0 0 1-1.983-.531 3.844 3.844 0 0 1-.789-.612 3.938 3.938 0 0 1-1.002-1.74 4.015 4.015 0 0 1-.138-1.06 3.948 3.948 0 0 1 1.14-2.799 3.876 3.876 0 0 1 2.772-1.137c.248 0 .479.029.693.085.214.056.41.132.588.228s.339.21.483.345c.144.134.27.279.378.435l.174-.546.099-.243a.432.432 0 0 1 .084-.138c.03-.03.067-.05.111-.06a.887.887 0 0 1 .186-.015h.894c.044 0 .096.006.156.018a.3.3 0 0 1 .156.084.384.384 0 0 1 .12.15c.024.056.036.12.036.192v6.762zm-5.91-3.36c0 .264.041.51.123.74a1.667 1.667 0 0 0 1.611 1.143 1.886 1.886 0 0 0 1.347-.545c.17-.168.303-.367.399-.597.096-.23.144-.477.144-.741a1.94 1.94 0 0 0-.543-1.344 1.89 1.89 0 0 0-.6-.417 1.822 1.822 0 0 0-.747-.153 1.631 1.631 0 0 0-1.26.57 1.89 1.89 0 0 0-.351.612 2.18 2.18 0 0 0-.123.732zm8.35-5.622c0-.128.032-.236.096-.324.064-.088.174-.132.33-.132h1.47c.04 0 .082.01.126.033a.444.444 0 0 1 .123.093c.038.04.07.088.096.144a.436.436 0 0 1 .039.186v8.964c0 .152-.043.267-.129.345a.477.477 0 0 1-.333.117h-1.392c-.156 0-.266-.04-.33-.117-.064-.078-.096-.193-.096-.345V201.8zm4.486 5.622a3.967 3.967 0 0 1 .537-2.007c.17-.29.374-.554.612-.792s.503-.441.795-.61a3.984 3.984 0 0 1 2.004-.527 3.897 3.897 0 0 1 2.781 1.137c.354.354.634.77.84 1.248.206.478.309.995.309 1.55a3.934 3.934 0 0 1-.537 2.005 3.88 3.88 0 0 1-1.407 1.407 3.934 3.934 0 0 1-1.986.53c-.368 0-.721-.045-1.059-.137a3.91 3.91 0 0 1-1.74-1.005 3.88 3.88 0 0 1-.612-.795 3.999 3.999 0 0 1-.537-2.004zm2.19 0c0 .264.041.51.123.74.082.23.198.43.348.598.15.168.332.3.546.399.214.098.455.147.723.147.26 0 .495-.05.705-.147.21-.098.388-.231.534-.4a1.76 1.76 0 0 0 .336-.596c.078-.23.117-.477.117-.741 0-.256-.039-.5-.117-.732a1.893 1.893 0 0 0-.336-.612 1.584 1.584 0 0 0-.534-.417 1.592 1.592 0 0 0-.705-.153 1.66 1.66 0 0 0-.723.153 1.63 1.63 0 0 0-.546.417 1.92 1.92 0 0 0-.348.612 2.18 2.18 0 0 0-.123.732zm8.038-3.714a.371.371 0 0 1 .165-.084.815.815 0 0 1 .165-.018h.906c.072 0 .134.013.186.039a.399.399 0 0 1 .132.105.556.556 0 0 1 .087.15l.063.174.126.528a1.43 1.43 0 0 1 .291-.384c.134-.132.3-.252.498-.36.198-.108.427-.197.687-.267.26-.07.55-.105.87-.105.456 0 .863.088 1.221.264.358.176.662.416.912.72s.44.659.57 1.065c.13.406.195.839.195 1.299v3.93c0 .152-.033.267-.099.345-.066.078-.171.117-.315.117h-1.386c-.172 0-.29-.03-.354-.087-.064-.058-.096-.171-.096-.34v-3.905c0-.172-.039-.335-.117-.49a1.484 1.484 0 0 0-.744-.687 1.268 1.268 0 0 0-.495-.101c-.144 0-.291.032-.441.096a1.48 1.48 0 0 0-.414.267 1.569 1.569 0 0 0-.318.402 1.175 1.175 0 0 0-.147.5v3.9a.568.568 0 0 1-.039.205.324.324 0 0 1-.117.156.549.549 0 0 1-.147.066.633.633 0 0 1-.159.018h-1.356c-.172 0-.296-.042-.372-.126a.482.482 0 0 1-.114-.336v-6.714a.44.44 0 0 1 .051-.21.378.378 0 0 1 .141-.15l-.036.018z" id="el_mcJZZNyWgAS" fill-rule="nonzero"/><g id="el_3bTRqp8MSY2"><path d="M12.732 0s-1.72 1.756-3.58 2.464C-4.623 7.708 1.186 17.926 1.376 17.96c0 0 .772-1.415 1.816-2.223 6.621-5.122 7.967-11.019 7.967-11.019s-1.486 7.096-7.377 11.51c-1.3.975-2.182 3.375-2.554 5.773 0 0 .922-.392 1.318-.498.155-1.062.478-2.08 1.025-2.988 8.233 1.032 10.93-5.95 11.281-8.384C15.684 4.38 12.732 0 12.732 0z" id="el_5ARGeYapTsT"/></g><path d="M34.182 219.781l1.777-7.086c.815-.44 1.36-1.028.832-1.096-.62-.08-1.035-.22-1.344-.38-.079-.358-.531-.675-1.208-.895-.322-.7-1.058-1.213-1.941-1.308v-.487a.3.3 0 0 0-.298-.303.3.3 0 0 0-.298.303v.487c-.883.095-1.619.609-1.94 1.308-.678.22-1.13.537-1.21.895-.308.16-.722.3-1.343.38-.528.068.017.655.833 1.096l1.776 7.086h1.062c.731.941-1.352 1.565-.083 2.62h.175v1.378h-.345a.244.244 0 0 0-.242.246c0 .136.108.246.242.246h.345v.23h-.345a.244.244 0 0 0-.242.246c0 .136.108.246.242.246h.345v7.616h-.345a.244.244 0 0 0-.242.245c0 .136.108.246.242.246h.345v.23h-.345a.244.244 0 0 0-.242.246c0 .136.108.246.242.246h.345v3.883h-.423c-.344 2.207-.688 11.57-1.032 13.778h-.48v2.743h5.927v-2.743h-.48c-.345-2.208-.688-11.571-1.032-13.778l-.423.002v-3.885h.344c.134 0 .242-.11.242-.246a.244.244 0 0 0-.242-.246h-.344v-.23h.344c.134 0 .242-.11.242-.246a.244.244 0 0 0-.242-.245h-.344v-7.616h.344c.134 0 .242-.11.242-.246a.244.244 0 0 0-.242-.246h-.344v-.23h.344c.134 0 .242-.11.242-.246a.244.244 0 0 0-.242-.246h-.344v-1.377h.174c1.27-1.056-.814-1.68-.083-2.62h1.062zm-3.09-6.705c.28.1.587.155.908.155.321 0 .628-.055.908-.155v5.717h-1.816v-5.717zm2.577 5.624v-5.565c.204.034.419.053.64.053.245 0 .51-.047.773-.126l-1.413 5.638zm-4.75-5.638c.263.079.527.126.772.126.221 0 .436-.019.64-.053v5.565l-1.412-5.638z" id="el_LwOETt-gAOr"/></g><g id="el_Lr3XMwEHnaS"><path d="M11.812 0c3.132 0 6.083 1.247 8.308 3.512a12.078 12.078 0 0 1 3.47 8.518c0 2.972-1.068 5.82-3.008 8.023l-.032.034-7.243 7.452a2.1 2.1 0 0 1-3.021.002l-7.278-7.467C1.068 17.874 0 15.017 0 12.03 0 5.397 5.284 0 11.779 0zm-.003 2.013h-.028c-5.567 0-10.096 4.626-10.096 10.312 0 2.56.916 5.008 2.578 6.895l6.239 6.4a1.8 1.8 0 0 0 2.59-.003l6.207-6.386.028-.03a10.383 10.383 0 0 0 2.578-6.876c0-2.757-1.056-5.35-2.974-7.302-1.907-1.941-4.437-3.01-7.122-3.01z" id="el_F4gJOZ_nVh1"/><path d="M11.807 4.026c2.238 0 4.346.89 5.934 2.508a8.627 8.627 0 0 1 2.48 6.085 8.653 8.653 0 0 1-2.15 5.73l-.022.025-5.174 5.322a1.5 1.5 0 0 1-2.158.002L5.52 18.365a8.676 8.676 0 0 1-2.149-5.746c0-4.739 3.774-8.593 8.413-8.593zm-.002 2.013h-.019c-3.711 0-6.73 3.084-6.73 6.874 0 1.707.61 3.339 1.718 4.597l4.16 4.266a1.2 1.2 0 0 0 1.725 0l4.139-4.259.018-.02a6.924 6.924 0 0 0 1.72-4.584 6.9 6.9 0 0 0-1.984-4.867 6.614 6.614 0 0 0-4.747-2.007z" id="el_h1WOXdmnGeH"/><path d="M11.803 8.052a4.96 4.96 0 0 1 3.56 1.505 5.176 5.176 0 0 1 1.487 3.65 5.193 5.193 0 0 1-1.289 3.439l-.014.014-3.104 3.194a.9.9 0 0 1-1.295 0l-3.119-3.2a5.206 5.206 0 0 1-1.289-3.446c0-2.843 2.265-5.156 5.048-5.156zm-.003 2.013h-.01c-1.855 0-3.365 1.541-3.365 3.437 0 .853.306 1.67.86 2.298l2.08 2.133a.6.6 0 0 0 .862 0l2.07-2.13.009-.01a3.46 3.46 0 0 0 .86-2.291c0-.919-.353-1.783-.992-2.434a3.309 3.309 0 0 0-2.374-1.003z" id="el_Tb8s4nlLJPD"/></g><g id="el_Ff5ie7FEZ79"><path d="M11.812 0c3.132 0 6.083 1.247 8.308 3.512a12.078 12.078 0 0 1 3.47 8.518c0 2.972-1.068 5.82-3.008 8.023l-.032.034-7.243 7.452a2.1 2.1 0 0 1-3.021.002l-7.278-7.467C1.068 17.874 0 15.017 0 12.03 0 5.397 5.284 0 11.779 0zm-.003 2.013h-.028c-5.567 0-10.096 4.626-10.096 10.312 0 2.56.916 5.008 2.578 6.895l6.239 6.4a1.8 1.8 0 0 0 2.59-.003l6.207-6.386.028-.03a10.383 10.383 0 0 0 2.578-6.876c0-2.757-1.056-5.35-2.974-7.302-1.907-1.941-4.437-3.01-7.122-3.01z" id="el_Yp793heHeYb"/><path d="M11.807 4.026c2.238 0 4.346.89 5.934 2.508a8.627 8.627 0 0 1 2.48 6.085 8.653 8.653 0 0 1-2.15 5.73l-.022.025-5.174 5.322a1.5 1.5 0 0 1-2.158.002L5.52 18.365a8.676 8.676 0 0 1-2.149-5.746c0-4.739 3.774-8.593 8.413-8.593zm-.002 2.013h-.019c-3.711 0-6.73 3.084-6.73 6.874 0 1.707.61 3.339 1.718 4.597l4.16 4.266a1.2 1.2 0 0 0 1.725 0l4.139-4.259.018-.02a6.924 6.924 0 0 0 1.72-4.584 6.9 6.9 0 0 0-1.984-4.867 6.614 6.614 0 0 0-4.747-2.007z" id="el_slIcLTDQkRw"/><path d="M11.803 8.052a4.96 4.96 0 0 1 3.56 1.505 5.176 5.176 0 0 1 1.487 3.65 5.193 5.193 0 0 1-1.289 3.439l-.014.014-3.104 3.194a.9.9 0 0 1-1.295 0l-3.119-3.2a5.206 5.206 0 0 1-1.289-3.446c0-2.843 2.265-5.156 5.048-5.156zm-.003 2.013h-.01c-1.855 0-3.365 1.541-3.365 3.437 0 .853.306 1.67.86 2.298l2.08 2.133a.6.6 0 0 0 .862 0l2.07-2.13.009-.01a3.46 3.46 0 0 0 .86-2.291c0-.919-.353-1.783-.992-2.434a3.309 3.309 0 0 0-2.374-1.003z" id="el_1Or9tQDP_l2"/></g><g id="el_fq8IZA3Z5S9"><path d="M14.764 0C18.68 0 22.37 1.559 25.15 4.39c2.798 2.846 4.338 6.628 4.338 10.648 0 3.714-1.335 7.275-3.76 10.028l-.04.043-9.054 9.315a2.626 2.626 0 0 1-3.777.002L3.76 25.093C1.335 22.342 0 18.771 0 15.038 0 6.746 6.605 0 14.724 0zm-.002 2.516h-.036c-6.958 0-12.62 5.782-12.62 12.89 0 3.2 1.145 6.26 3.223 8.619l7.799 8a2.25 2.25 0 0 0 3.236-.003l7.76-7.984.034-.037a12.978 12.978 0 0 0 3.223-8.595c0-3.446-1.32-6.687-3.718-9.127-2.383-2.427-5.545-3.763-8.901-3.763z" id="el_eP_-OtzzaYC"/><path d="M14.759 5.032c2.797 0 5.432 1.114 7.418 3.136a10.784 10.784 0 0 1 3.098 7.606c0 2.653-.953 5.196-2.686 7.163l-.028.03-6.467 6.653a1.875 1.875 0 0 1-2.697.002l-6.499-6.666c-1.731-1.965-2.685-4.516-2.685-7.182 0-5.924 4.718-10.742 10.516-10.742zm-.003 2.516h-.023c-4.64 0-8.414 3.855-8.414 8.593 0 2.133.763 4.174 2.149 5.747l5.198 5.333a1.5 1.5 0 0 0 2.158-.002l5.173-5.323.024-.024a8.655 8.655 0 0 0 2.148-5.73c0-2.298-.88-4.458-2.479-6.085-1.589-1.618-3.697-2.509-5.934-2.509z" id="el_7xni7mKGHtK"/><path d="M14.753 10.065a6.2 6.2 0 0 1 4.45 1.88 6.47 6.47 0 0 1 1.86 4.564 6.491 6.491 0 0 1-1.612 4.298l-.017.018-3.88 3.992a1.125 1.125 0 0 1-1.618.002l-3.9-4a6.507 6.507 0 0 1-1.61-4.31c0-3.553 2.83-6.444 6.31-6.444zm-.003 2.516h-.012c-2.319 0-4.207 1.927-4.207 4.296 0 1.067.382 2.087 1.075 2.873l2.6 2.667a.75.75 0 0 0 1.078-.001l2.587-2.661.01-.013a4.325 4.325 0 0 0 1.076-2.865c0-1.148-.44-2.229-1.24-3.042a4.136 4.136 0 0 0-2.967-1.254z" id="el_BeqkTgiPnbR"/></g><g id="el_qXiXN3eq8UX"><path d="M15.257 0c4.046 0 7.858 1.61 10.732 4.536 2.89 2.942 4.482 6.85 4.482 11.003 0 3.838-1.38 7.518-3.886 10.362l-.041.045-9.356 9.625a2.713 2.713 0 0 1-3.902.002l-9.4-9.643C1.38 23.086 0 19.396 0 15.54 0 6.97 6.825 0 15.214 0zm-.003 2.6h-.037c-7.19 0-13.04 5.975-13.04 13.32 0 3.306 1.183 6.468 3.33 8.905l8.058 8.267a2.325 2.325 0 0 0 3.344-.003l8.02-8.25.035-.038a13.41 13.41 0 0 0 3.33-8.882c0-3.56-1.364-6.91-3.842-9.431C21.99 3.98 18.722 2.6 15.254 2.6z" id="el_qjPJvIMgW0-"/><path d="M15.251 5.2c2.89 0 5.613 1.15 7.665 3.24a11.143 11.143 0 0 1 3.202 7.86c0 2.741-.985 5.37-2.776 7.401l-.029.032-6.683 6.875c-.767.789-2.018.79-2.787.002L7.128 23.72c-1.79-2.03-2.775-4.667-2.775-7.421 0-6.121 4.875-11.1 10.867-11.1zm-.003 2.6h-.024c-4.794 0-8.695 3.984-8.695 8.88 0 2.204.79 4.312 2.22 5.937l5.373 5.51a1.55 1.55 0 0 0 2.23 0l5.345-5.5.024-.026a8.944 8.944 0 0 0 2.22-5.922c0-2.373-.91-4.606-2.561-6.287C19.738 8.721 17.56 7.8 15.248 7.8z" id="el_pSHRPVkHOIm"/><path d="M15.245 10.4c1.734 0 3.367.69 4.599 1.944a6.685 6.685 0 0 1 1.92 4.716A6.708 6.708 0 0 1 20.1 21.5l-.018.02-4.01 4.125a1.163 1.163 0 0 1-1.672 0l-4.029-4.132a6.724 6.724 0 0 1-1.665-4.453c0-3.673 2.925-6.66 6.52-6.66zm-.003 2.6h-.013c-2.396 0-4.346 1.991-4.346 4.44a4.48 4.48 0 0 0 1.11 2.968l2.686 2.756a.775.775 0 0 0 1.115 0l2.673-2.75.011-.014a4.47 4.47 0 0 0 1.11-2.96 4.461 4.461 0 0 0-1.28-3.144A4.274 4.274 0 0 0 15.242 13z" id="el_5mak25UDtBu"/></g><g id="el_1aJtPOPx85P"><path d="M12.364 0c3.28 0 6.369 1.305 8.698 3.676 2.342 2.384 3.632 5.551 3.632 8.917 0 3.11-1.118 6.093-3.149 8.398l-.033.036-7.582 7.8c-.87.896-2.291.897-3.163.002L3.15 21.014C1.119 18.71 0 15.719 0 12.594 0 5.648 5.531 0 12.33 0zm-.002 2.107h-.03c-5.827 0-10.568 4.842-10.568 10.794 0 2.68.959 5.243 2.699 7.218l6.53 6.7a1.884 1.884 0 0 0 2.71-.003l6.5-6.685.028-.032a10.869 10.869 0 0 0 2.7-7.198c0-2.885-1.106-5.6-3.114-7.643-1.997-2.032-4.644-3.151-7.455-3.151z" id="el_rOJW1laH5Di"/><path d="M12.36 4.214c2.342 0 4.548.933 6.212 2.626a9.03 9.03 0 0 1 2.594 6.37 9.058 9.058 0 0 1-2.249 5.998l-.024.026-5.415 5.571a1.57 1.57 0 0 1-2.26.002l-5.441-5.583a9.082 9.082 0 0 1-2.25-6.014c0-4.96 3.952-8.996 8.808-8.996zm-.003 2.107h-.02c-3.884 0-7.045 3.229-7.045 7.196 0 1.787.639 3.496 1.8 4.812l4.353 4.467c.497.51 1.31.51 1.807-.002l4.332-4.457.02-.02a7.248 7.248 0 0 0 1.799-4.8 7.223 7.223 0 0 0-2.076-5.095 6.923 6.923 0 0 0-4.97-2.1z" id="el_LpgMhxY4AV7"/><path d="M12.355 8.429c1.405 0 2.729.559 3.727 1.575a5.418 5.418 0 0 1 1.557 3.822c0 1.333-.48 2.61-1.35 3.599l-.014.015-3.25 3.343a.942.942 0 0 1-1.355.001l-3.265-3.35a5.45 5.45 0 0 1-1.35-3.608c0-2.976 2.371-5.397 5.285-5.397zm-.003 2.107h-.01c-1.942 0-3.523 1.613-3.523 3.598 0 .893.32 1.747.9 2.405l2.177 2.234c.25.255.655.255.903-.001l2.167-2.229.009-.01c.58-.659.9-1.51.9-2.4 0-.96-.369-1.866-1.038-2.547a3.464 3.464 0 0 0-2.485-1.05z" id="el_SeIYV3p46Z5"/></g><g id="el_llqM2FSugaC"><path d="M10.88 0c2.886 0 5.605 1.149 7.655 3.235a11.126 11.126 0 0 1 3.196 7.847 11.16 11.16 0 0 1-2.771 7.39l-.03.032-6.672 6.864a1.935 1.935 0 0 1-2.783.002l-6.704-6.878C.984 16.464 0 13.833 0 11.082 0 4.972 4.867 0 10.85 0zm-.002 1.854h-.026c-5.127 0-9.3 4.261-9.3 9.5a9.59 9.59 0 0 0 2.375 6.35L9.674 23.6a1.658 1.658 0 0 0 2.385-.002l5.72-5.883.024-.027a9.564 9.564 0 0 0 2.376-6.335c0-2.539-.973-4.928-2.74-6.726-1.757-1.788-4.087-2.773-6.56-2.773z" id="el_axJ_NuEG5ZK"/><path d="M10.877 3.709c2.06 0 4.002.82 5.466 2.31a7.947 7.947 0 0 1 2.283 5.605 7.97 7.97 0 0 1-1.979 5.28l-.02.022-4.767 4.903a1.382 1.382 0 0 1-1.987.001l-4.79-4.913a7.993 7.993 0 0 1-1.979-5.293c0-4.365 3.477-7.915 7.75-7.915zm-.003 1.854h-.017c-3.419 0-6.2 2.84-6.2 6.332 0 1.572.562 3.076 1.583 4.235l3.831 3.93c.438.45 1.153.45 1.59-.001l3.813-3.922.017-.019a6.378 6.378 0 0 0 1.583-4.223 6.356 6.356 0 0 0-1.826-4.484 6.092 6.092 0 0 0-4.374-1.848z" id="el_lOX4BkLsM41"/><path d="M10.872 7.417a4.57 4.57 0 0 1 3.28 1.386c.884.9 1.37 2.094 1.37 3.364a4.784 4.784 0 0 1-1.187 3.167l-.013.013-2.86 2.942a.83.83 0 0 1-1.192.001l-2.874-2.948a4.795 4.795 0 0 1-1.187-3.175c0-2.62 2.086-4.75 4.65-4.75zm-.002 1.854h-.009c-1.709 0-3.1 1.42-3.1 3.167 0 .786.281 1.537.792 2.117l1.915 1.965c.22.225.577.225.796 0l1.906-1.962.008-.009c.511-.58.792-1.33.792-2.111 0-.847-.324-1.643-.913-2.243a3.048 3.048 0 0 0-2.187-.924z" id="el_KVWT4Gf8bT-"/></g><g id="el__p5xUa6dl-b"><path d="M13.288 0c3.524 0 6.844 1.403 9.347 3.95 2.518 2.563 3.904 5.966 3.904 9.584a13.63 13.63 0 0 1-3.384 9.025l-.036.039-8.148 8.383a2.363 2.363 0 0 1-3.4.002l-8.187-8.4C1.202 20.108 0 16.894 0 13.535 0 6.071 5.944 0 13.251 0zm-.003 2.264h-.031c-6.263 0-11.358 5.204-11.358 11.601 0 2.88 1.03 5.634 2.9 7.757l7.019 7.2a2.025 2.025 0 0 0 2.913-.002l6.984-7.186.03-.033a11.68 11.68 0 0 0 2.901-7.736c0-3.1-1.188-6.018-3.346-8.214-2.145-2.184-4.99-3.387-8.012-3.387z" id="el_HHOcrrqWVBP"/><path d="M13.283 4.53c2.517 0 4.889 1.001 6.676 2.82a9.705 9.705 0 0 1 2.789 6.846 9.734 9.734 0 0 1-2.418 6.447l-.025.027-5.82 5.988a1.687 1.687 0 0 1-2.428.002l-5.848-6a9.761 9.761 0 0 1-2.418-6.464c0-5.33 4.247-9.667 9.465-9.667zm-.002 2.263h-.022c-4.175 0-7.572 3.47-7.572 7.734 0 1.92.687 3.757 1.934 5.172l4.679 4.8a1.35 1.35 0 0 0 1.942-.002l4.656-4.79.02-.022a7.79 7.79 0 0 0 1.934-5.158 7.763 7.763 0 0 0-2.23-5.476 7.44 7.44 0 0 0-5.341-2.258z" id="el_B3suBaBhtcK"/><path d="M13.278 9.058a5.58 5.58 0 0 1 4.005 1.693 5.823 5.823 0 0 1 1.673 4.107 5.842 5.842 0 0 1-1.45 3.868l-.015.017-3.492 3.593c-.401.412-1.055.412-1.457 0l-3.51-3.6a5.856 5.856 0 0 1-1.45-3.878c0-3.198 2.548-5.8 5.68-5.8zm-.003 2.265h-.01c-2.088 0-3.787 1.734-3.787 3.867 0 .96.344 1.878.967 2.585l2.34 2.4a.675.675 0 0 0 .97 0l2.329-2.396.01-.01a3.893 3.893 0 0 0 .967-2.58 3.885 3.885 0 0 0-1.115-2.738 3.722 3.722 0 0 0-2.671-1.128z" id="el_YFXzhog8__N"/></g><g id="el_5khcjjb0OJj"><path d="M26 13c0 7.18-5.82 13-13 13S0 20.18 0 13 5.82 0 13 0s13 5.82 13 13" id="el_x0UxDjJJf10"/><path d="M23.097 13c0 5.576-4.52 10.097-10.097 10.097-5.576 0-10.097-4.52-10.097-10.097C2.903 7.424 7.423 2.903 13 2.903c5.576 0 10.097 4.52 10.097 10.097" id="el_QbzR1ZxRXV9"/><g id="el_5OQV87M0hbY"><mask id="mask-15" fill="#fff"><use xlink:href="#path-14"/></mask><path d="M.06 10.156c0 5.577 4.52 10.097 10.096 10.097 5.577 0 10.097-4.52 10.097-10.097C20.253 4.58 15.733.06 10.156.06 4.58.06.06 4.58.06 10.156m.813 0c0-5.12 4.165-9.284 9.284-9.284 5.12 0 9.285 4.165 9.285 9.284 0 5.12-4.165 9.285-9.285 9.285S.872 15.276.872 10.156" id="el_HRxAUOhMUNP" mask="url(#mask-15)"/></g><path d="M18.05 9.485c-.46-.283-.997-.427-1.595-.427-.571 0-1.106.13-1.591.387-.33.175-.627.407-.888.691a2.72 2.72 0 0 0-.746-.68 2.751 2.751 0 0 0-1.456-.398 3.49 3.49 0 0 0-1.432.294 3.352 3.352 0 0 0-.612.356.774.774 0 0 0-.705-.457H7.954a.775.775 0 0 0-.773.775v6.682c0 .428.347.776.773.776h1.071a.775.775 0 0 0 .773-.776v-4.305c0-.6.486-1.088 1.084-1.088.6 0 1.085.487 1.085 1.088l.002 1.535v2.749c0 .44.357.797.794.797h1.007a.796.796 0 0 0 .794-.797v-4.284c0-.6.486-1.088 1.085-1.088.598 0 1.084.487 1.084 1.088v1.75h-.003v2.555c0 .428.347.776.773.776h1.085a.775.775 0 0 0 .773-.776v-3.987c0-.961-.097-1.648-.297-2.1a2.52 2.52 0 0 0-1.014-1.136" id="el_Jiv95pOWJuu"/><path d="M17.78 9.214c-.461-.283-.998-.427-1.595-.427-.572 0-1.107.13-1.592.388-.33.174-.627.406-.888.69a2.72 2.72 0 0 0-.745-.68 2.751 2.751 0 0 0-1.457-.398 3.49 3.49 0 0 0-1.431.294 3.352 3.352 0 0 0-.612.356.774.774 0 0 0-.706-.457h-1.07a.775.775 0 0 0-.774.775v6.682c0 .428.347.776.773.776h1.071a.775.775 0 0 0 .773-.776v-4.305c0-.6.486-1.088 1.085-1.088.598 0 1.084.487 1.084 1.088l.002 1.535v2.749c0 .44.357.797.795.797h1.006a.796.796 0 0 0 .795-.797v-4.284c0-.6.485-1.088 1.084-1.088.599 0 1.084.487 1.084 1.088v1.751h-.003v2.554c0 .428.347.776.773.776h1.085a.775.775 0 0 0 .773-.776V12.45c0-.961-.097-1.648-.296-2.099a2.52 2.52 0 0 0-1.015-1.137" id="el_iRwIilaALtm"/></g><g id="el_PhVHN04pJ4v"><path d="M22 11c0 6.075-4.925 11-11 11S0 17.075 0 11 4.925 0 11 0s11 4.925 11 11" id="el_tb3stfk6ACw"/><path d="M19.544 11a8.543 8.543 0 1 1-17.087 0 8.543 8.543 0 0 1 17.087 0" id="el_c67qVXJ0ia8"/><g id="el_9eiZ7o4Yomi"><mask id="mask-17" fill="#fff"><use xlink:href="#path-16"/></mask><path d="M.05 8.594a8.543 8.543 0 1 0 17.087 0 8.543 8.543 0 1 0-17.087 0m.688 0C.738 4.262 4.262.738 8.594.738s7.856 3.524 7.856 7.856-3.524 7.856-7.856 7.856S.738 12.926.738 8.594" id="el_hSV-IBv6n4V" mask="url(#mask-17)"/></g><path d="M15.273 8.026c-.39-.24-.843-.361-1.35-.361-.483 0-.936.11-1.346.327-.279.148-.53.345-.751.585a2.302 2.302 0 0 0-.631-.575 2.328 2.328 0 0 0-1.233-.337c-.433 0-.84.083-1.21.248-.18.08-.354.181-.519.301a.655.655 0 0 0-.596-.386H6.73a.656.656 0 0 0-.654.656v5.654c0 .361.294.656.654.656h.907c.36 0 .654-.295.654-.656v-3.643c0-.509.41-.92.917-.92.507 0 .918.411.918.92l.002 1.299v2.326c0 .371.301.674.672.674h.852c.37 0 .672-.303.672-.674v-3.625c0-.509.41-.92.917-.92.507 0 .918.411.918.92v1.481h-.003v2.162c0 .361.293.656.654.656h.918c.36 0 .654-.295.654-.656v-3.374c0-.813-.082-1.394-.25-1.776a2.133 2.133 0 0 0-.859-.962" id="el_NG7rhuPfygl"/><path d="M15.044 7.796c-.39-.24-.844-.36-1.35-.36-.483 0-.936.11-1.346.327-.279.148-.53.344-.751.585a2.302 2.302 0 0 0-.631-.575 2.328 2.328 0 0 0-1.233-.338 2.837 2.837 0 0 0-1.729.55.655.655 0 0 0-.596-.387H6.5a.656.656 0 0 0-.654.656v5.655c0 .361.294.656.654.656h.907c.36 0 .654-.295.654-.656v-3.643c0-.509.41-.92.917-.92.507 0 .917.411.917.92l.003 1.299v2.325c0 .372.301.675.672.675h.851c.371 0 .673-.303.673-.675v-3.624c0-.509.41-.92.917-.92.507 0 .917.411.917.92v1.481h-.002v2.162c0 .361.293.656.654.656h.918c.36 0 .654-.295.654-.656v-3.375c0-.813-.082-1.393-.25-1.775a2.133 2.133 0 0 0-.859-.963" id="el_xj1LHir4I_R"/></g><g id="el_cjliocvvmK5"><path d="M20 10c0 5.523-4.477 10-10 10S0 15.523 0 10 4.477 0 10 0s10 4.477 10 10" id="el_6AIfXsTKnIz"/><path d="M17.767 10a7.767 7.767 0 1 1-15.534 0 7.767 7.767 0 0 1 15.534 0" id="el_H1ddtV8iLfc"/><g id="el_Vyuan0ObShn"><mask id="mask-19" fill="#fff"><use xlink:href="#path-18"/></mask><path d="M.046 7.813a7.767 7.767 0 1 0 15.534 0 7.767 7.767 0 1 0-15.534 0m.625 0C.67 3.873 3.874.67 7.812.67a7.15 7.15 0 0 1 7.142 7.141c0 3.939-3.203 7.142-7.142 7.142-3.938 0-7.141-3.203-7.141-7.142" id="el_SbbZL4iTVkM" mask="url(#mask-19)"/></g><path d="M13.885 7.296a2.305 2.305 0 0 0-1.227-.328c-.44 0-.851.1-1.224.298a2.54 2.54 0 0 0-.683.531 2.092 2.092 0 0 0-.574-.523 2.116 2.116 0 0 0-1.12-.306 2.579 2.579 0 0 0-1.572.5.595.595 0 0 0-.543-.352h-.824a.596.596 0 0 0-.594.596v5.14c0 .33.267.597.594.597h.824a.596.596 0 0 0 .595-.597V9.541a.835.835 0 1 1 1.668 0l.002 1.18v2.115c0 .338.274.613.611.613h.774a.613.613 0 0 0 .611-.613V9.541a.835.835 0 1 1 1.668 0v1.347h-.002v1.964c0 .33.267.597.595.597h.834a.596.596 0 0 0 .595-.597V9.785c0-.739-.075-1.267-.228-1.614a1.939 1.939 0 0 0-.78-.875" id="el_ZKX2rHN8HBU"/><path d="M13.677 7.088a2.305 2.305 0 0 0-1.227-.329c-.44 0-.852.1-1.225.298a2.54 2.54 0 0 0-.682.532 2.092 2.092 0 0 0-.574-.523 2.116 2.116 0 0 0-1.12-.307 2.579 2.579 0 0 0-1.572.5.595.595 0 0 0-.543-.351H5.91a.596.596 0 0 0-.594.596v5.14c0 .329.266.597.594.597h.824a.596.596 0 0 0 .595-.597V9.332a.835.835 0 1 1 1.668 0l.002 1.181v2.115c0 .338.274.613.61.613h.775a.613.613 0 0 0 .611-.613V9.332a.835.835 0 1 1 1.668 0v1.347h-.002v1.965c0 .329.266.597.594.597h.835a.596.596 0 0 0 .594-.597V9.577c0-.74-.074-1.267-.227-1.615a1.939 1.939 0 0 0-.78-.874" id="el_pEcw-uNm5--"/></g><g id="el_QMsFiHRNHwB"><path d="M24 12c0 6.628-5.372 12-12 12S0 18.628 0 12 5.372 0 12 0s12 5.372 12 12" id="el_khS0d4dP3WN"/><path d="M21.32 12a9.32 9.32 0 1 1-18.64 0 9.32 9.32 0 1 1 18.64 0" id="el_AzW-c5rcuGd"/><g id="el_pT-hU6rUW4Q"><mask id="mask-21" fill="#fff"><use xlink:href="#path-20"/></mask><path d="M.055 9.375a9.32 9.32 0 0 0 9.32 9.32 9.32 9.32 0 0 0 0-18.64 9.32 9.32 0 0 0-9.32 9.32m.75 0c0-4.726 3.844-8.57 8.57-8.57 4.726 0 8.57 3.844 8.57 8.57 0 4.726-3.844 8.57-8.57 8.57-4.726 0-8.57-3.844-8.57-8.57" id="el_CEatC4ncN1V" mask="url(#mask-21)"/></g><path d="M16.662 8.755a2.766 2.766 0 0 0-1.472-.394c-.528 0-1.022.12-1.47.358a3.048 3.048 0 0 0-.819.638 2.511 2.511 0 0 0-.688-.628 2.54 2.54 0 0 0-1.345-.368c-.473 0-.917.091-1.321.271a3.094 3.094 0 0 0-.565.33.714.714 0 0 0-.651-.423h-.989a.715.715 0 0 0-.713.716v6.168c0 .395.32.716.713.716h.989a.715.715 0 0 0 .714-.716v-3.974c0-.555.448-1.004 1-1.004.553 0 1.001.45 1.001 1.004l.002 1.417v2.537c0 .406.33.736.734.736h.929c.404 0 .733-.33.733-.736V11.45c0-.555.448-1.004 1-1.004.554 0 1.002.45 1.002 1.004v1.616h-.003v2.358c0 .395.32.716.713.716h1.002a.715.715 0 0 0 .713-.716v-3.681c0-.887-.09-1.52-.273-1.937a2.327 2.327 0 0 0-.936-1.05" id="el_asd94lbtpOm"/><path d="M16.412 8.505a2.766 2.766 0 0 0-1.472-.394c-.528 0-1.022.12-1.47.358a3.048 3.048 0 0 0-.819.638 2.511 2.511 0 0 0-.688-.628 2.54 2.54 0 0 0-1.345-.368c-.473 0-.917.091-1.321.271a3.094 3.094 0 0 0-.565.33.714.714 0 0 0-.651-.423h-.989a.715.715 0 0 0-.713.716v6.168c0 .395.32.716.713.716h.989a.715.715 0 0 0 .714-.716v-3.974c0-.555.448-1.004 1-1.004.553 0 1.001.45 1.001 1.004l.002 1.417v2.537c0 .406.33.736.734.736h.929c.404 0 .733-.33.733-.736V11.2c0-.555.448-1.004 1-1.004.554 0 1.002.45 1.002 1.004v1.616h-.003v2.358c0 .395.32.716.713.716h1.002a.715.715 0 0 0 .713-.716v-3.681c0-.887-.09-1.52-.273-1.937a2.327 2.327 0 0 0-.936-1.05" id="el_4x_OF7iO_7L"/></g></g></g></g></svg>